<?xml version="1.0" encoding="UTF-8"?>
<svg version="1.1" xmlns="http://www.w3.org/2000/svg" width="203" height="203">
<path d="M0 0 C4.8519028 -0.30427187 10.84758896 0.4047431 15 3 C15.2475 3.804375 15.495 4.60875 15.75 5.4375 C16.70653264 8.09693775 16.70653264 8.09693775 18.765625 8.78125 C20.3152328 9.23637956 21.86754251 9.68237087 23.421875 10.12109375 C28.009897 11.68519216 31.93035269 14.41267456 36 17 C36.90234375 17.53625 37.8046875 18.0725 38.734375 18.625 C41 20 41 20 42 21 C42 23.33333333 42 25.66666667 42 28 C42.33 28.33 42.66 28.66 43 29 C42.71140219 31.33928768 42.36841329 33.67194777 42 36 C41.3172401 41.55823736 40.68829829 47.12260318 40.0625 52.6875 C39.9285231 53.87511932 39.9285231 53.87511932 39.7918396 55.08673096 C38.43901873 67.15920164 37.35320735 79.21697685 36.59594727 91.3425293 C36.52947998 92.4025415 36.4630127 93.46255371 36.39453125 94.5546875 C36.34143799 95.46718262 36.28834473 96.37967773 36.23364258 97.31982422 C35.97830537 100.24886483 35.51709997 103.10668358 35 106 C35.91289795 106.14099121 36.8257959 106.28198242 37.76635742 106.42724609 C41.1683343 106.95555309 44.56939015 107.48917458 47.9699707 108.02636719 C49.43903983 108.2573295 50.90843977 108.48619811 52.37817383 108.71289062 C54.49652098 109.04000417 56.61354539 109.37474798 58.73046875 109.7109375 C60.00301514 109.90993652 61.27556152 110.10893555 62.58666992 110.31396484 C65.61941223 110.92350679 68.18801899 111.73613552 71 113 C70.67 114.32 70.34 115.64 70 117 C64.06 117.33 58.12 117.66 52 118 C52.33 119.32 52.66 120.64 53 122 C20 122 -13 122 -47 122 C-46.67 120.68 -46.34 119.36 -46 118 C-52.27 117.67 -58.54 117.34 -65 117 C-65.33 115.68 -65.66 114.36 -66 113 C-59.36336742 110.5594717 -52.76988835 109.02968775 -45.8125 107.8125 C-44.85408203 107.63525391 -43.89566406 107.45800781 -42.90820312 107.27539062 C-38.18729734 106.4303909 -33.81118133 105.91373417 -29 106 C-29.12552246 105.06397949 -29.25104492 104.12795898 -29.38037109 103.16357422 C-30.67353063 93.30563766 -31.64479041 83.44463653 -32.43261719 73.53417969 C-32.62654697 71.10562749 -32.82860534 68.67783887 -33.03125 66.25 C-34.82507058 44.34761529 -34.82507058 44.34761529 -32.125 39.9375 C-30 38 -30 38 -28 37 C-29.11375 36.87625 -30.2275 36.7525 -31.375 36.625 C-35 36 -35 36 -37 34 C-37.1875 31.4375 -37.1875 31.4375 -37 29 C-35.16211462 27.16211462 -32.20235996 27.82694677 -29.73608398 27.79467773 C-28.7556311 27.77982834 -28.7556311 27.77982834 -27.75537109 27.76467896 C-25.58564936 27.73298366 -23.4159057 27.70827508 -21.24609375 27.68359375 C-19.74536048 27.66303113 -18.2446331 27.64203485 -16.74391174 27.62062073 C-12.78688307 27.56532845 -8.82980151 27.51595089 -4.87268066 27.46777344 C-0.8375984 27.4176105 3.19740672 27.36189732 7.23242188 27.30664062 C15.15488277 27.1989716 23.07740804 27.09754621 31 27 C5.90799238 21.62538241 5.90799238 21.62538241 -19.25561523 16.59887695 C-23.97079003 15.67910886 -28.48117508 14.67842068 -33 13 C-32.68303112 10.06803788 -32.47161106 8.45530155 -30.31274414 6.37109375 C-27.48168284 4.6927194 -25.52367159 4.53438313 -22.24609375 4.375 C-21.14458984 4.30796875 -20.04308594 4.2409375 -18.90820312 4.171875 C-16.59050434 4.0570987 -14.27279596 3.94251601 -11.95507812 3.828125 C-10.85486328 3.76109375 -9.75464844 3.6940625 -8.62109375 3.625 C-7.6148999 3.57601562 -6.60870605 3.52703125 -5.57202148 3.4765625 C-2.65256384 2.93562455 -1.90932206 2.17111013 0 0 Z M-18 42 C-19.86195437 43.86195437 -19.14953199 46.90370509 -19.15234375 49.390625 C-19.1279602 57.74487399 -18.50478975 66.0294821 -17.77319336 74.34765625 C-17.55912654 76.78846448 -17.3560847 79.23002378 -17.15429688 81.671875 C-17.0214668 83.23442898 -16.88802688 84.79693127 -16.75390625 86.359375 C-16.6934462 87.08429138 -16.63298615 87.80920776 -16.57069397 88.55609131 C-16.30357362 91.54896932 -15.95451845 94.13644464 -15 97 C-14.01 97 -13.02 97 -12 97 C-12.45828693 83.70036429 -13.07436475 70.40841742 -13.875 57.125 C-13.97433838 55.21811401 -13.97433838 55.21811401 -14.07568359 53.27270508 C-14.15125488 52.09216553 -14.22682617 50.91162598 -14.3046875 49.6953125 C-14.36640137 48.64359863 -14.42811523 47.59188477 -14.49169922 46.50830078 C-14.76444096 43.64765214 -14.76444096 43.64765214 -18 42 Z M2 42 C0.75687501 43.02082376 0.75687501 43.02082376 0.87974548 45.17030334 C0.88196609 46.12738693 0.88418671 47.08447052 0.88647461 48.07055664 C0.88655014 49.15160172 0.88662567 50.23264679 0.88670349 51.34645081 C0.89186478 52.5224736 0.89702606 53.6984964 0.90234375 54.91015625 C0.9037587 56.10732773 0.90517365 57.30449921 0.90663147 58.53794861 C0.91225021 62.37949066 0.92480589 66.22097543 0.9375 70.0625 C0.94251259 72.65950437 0.94707591 75.25650965 0.95117188 77.85351562 C0.96222573 84.23569679 0.97898208 90.6178443 1 97 C2.98 96.505 2.98 96.505 5 96 C5 78.51 5 61.02 5 43 C4.01 42.67 3.02 42.34 2 42 Z M22 43 C18.85878753 46.14121247 19.70313783 55.90616825 19.46484375 60.33984375 C19.42186661 61.10623672 19.37888947 61.8726297 19.33460999 62.6622467 C19.24507781 64.27141991 19.15691441 65.88066982 19.07006836 67.48999023 C18.93802498 69.92780761 18.80037602 72.36526293 18.66210938 74.80273438 C18.57518463 76.37758565 18.48858537 77.95245492 18.40234375 79.52734375 C18.36173325 80.2432518 18.32112274 80.95915985 18.27928162 81.69676208 C18.00847225 86.80376517 17.96760961 91.88577759 18 97 C18.99 97 19.98 97 21 97 C21.48067767 92.56266234 21.95926227 88.12510123 22.4375 83.6875 C22.57220703 82.44419922 22.70691406 81.20089844 22.84570312 79.91992188 C24.54062683 64.90039655 24.54062683 64.90039655 25.0625 49.8125 C25.05347656 48.51957031 25.04445313 47.22664063 25.03515625 45.89453125 C25.02355469 44.93933594 25.01195313 43.98414063 25 43 C24.01 43 23.02 43 22 43 Z " fill="#E5EEEC" transform="translate(100,57)"/>
<path d="M0 0 C2.97 0 5.94 0 9 0 C8.88127872 4.87482574 8.7570007 9.7494672 8.62768555 14.62402344 C8.58450951 16.28056031 8.54282303 17.93713672 8.50268555 19.59375 C8.4445607 21.9818918 8.38099052 24.3698377 8.31640625 26.7578125 C8.29969376 27.49242706 8.28298126 28.22704163 8.26576233 28.98391724 C8.14907639 33.08073964 7.71537366 36.96948866 7 41 C6.87459053 42.70369408 6.78036492 44.40999546 6.71875 46.1171875 C6.68136719 47.05433594 6.64398438 47.99148437 6.60546875 48.95703125 C6.57066406 49.91996094 6.53585938 50.88289063 6.5 51.875 C6.26555523 58.3092065 5.90462441 64.62239791 5 71 C4.34 71 3.68 71 3 71 C2.814375 72.4540625 2.814375 72.4540625 2.625 73.9375 C2.41875 74.948125 2.2125 75.95875 2 77 C-0.54938815 78.27469407 -2.33040998 78.12016184 -5.18408203 78.11352539 C-6.26505157 78.11344986 -7.34602112 78.11337433 -8.45974731 78.11329651 C-10.21603958 78.10555458 -10.21603958 78.10555458 -12.0078125 78.09765625 C-13.20356903 78.0962413 -14.39932556 78.09482635 -15.63131714 78.09336853 C-19.46256987 78.08775663 -23.29376484 78.07520208 -27.125 78.0625 C-29.71744707 78.05748653 -32.30989506 78.05292336 -34.90234375 78.04882812 C-41.26824898 78.03778333 -47.63412037 78.02103359 -54 78 C-55.68912586 73.98972498 -56.41677118 70.59113997 -56.81640625 66.2421875 C-56.87770218 65.58930252 -56.93899811 64.93641754 -57.00215149 64.26374817 C-57.19832675 62.13488796 -57.38163488 60.00521236 -57.5625 57.875 C-57.6259259 57.14834137 -57.68935181 56.42168274 -57.75469971 55.67300415 C-58.65011892 45.35530062 -59.39499946 35.03354435 -59.875 24.6875 C-59.93631104 23.56263184 -59.99762207 22.43776367 -60.06079102 21.27880859 C-60.11964478 19.72347412 -60.11964478 19.72347412 -60.1796875 18.13671875 C-60.21819824 17.23655029 -60.25670898 16.33638184 -60.29638672 15.40893555 C-59.93061148 12.43603252 -59.08162595 11.12829243 -57 9 C-53.8125 8.25 -53.8125 8.25 -51 8 C-50.92652344 9.21623047 -50.92652344 9.21623047 -50.8515625 10.45703125 C-50.77679688 11.56433594 -50.70203125 12.67164062 -50.625 13.8125 C-50.55539063 14.89144531 -50.48578125 15.97039062 -50.4140625 17.08203125 C-50.09562523 20.09516882 -49.64809407 22.91362325 -49.0625 25.875 C-47.61049579 33.5835701 -47.03994243 41.38117708 -46.375 49.1875 C-46.24005048 50.72725456 -46.10463705 52.26696853 -45.96875 53.80664062 C-45.64049245 57.5373085 -45.3184857 61.26848367 -45 65 C-43.68 65.33 -42.36 65.66 -41 66 C-40.97461204 58.70427189 -40.95711711 51.40855522 -40.94506836 44.11279297 C-40.94004453 41.63166885 -40.93322434 39.15054768 -40.92456055 36.66943359 C-40.91240964 33.09992747 -40.90675212 29.53046055 -40.90234375 25.9609375 C-40.89718246 24.85446869 -40.89202118 23.74799988 -40.88670349 22.60800171 C-40.88634206 17.62837681 -40.92749234 12.8912287 -42 8 C-39.69 8.33 -37.38 8.66 -35 9 C-35 8.34 -35 7.68 -35 7 C-32.525 7.495 -32.525 7.495 -30 8 C-29.67 26.81 -29.34 45.62 -29 65 C-27.35 65.33 -25.7 65.66 -24 66 C-22.87061794 54.90509529 -21.99045875 43.83280425 -21.71484375 32.68359375 C-21.69527115 31.89274887 -21.67569855 31.10190399 -21.65553284 30.28709412 C-21.56267474 26.32719202 -21.48793243 22.36754141 -21.42993164 18.40698242 C-21.40127139 16.94059114 -21.37254717 15.4742011 -21.34375 14.0078125 C-21.32505859 12.70473145 -21.30636719 11.40165039 -21.28710938 10.05908203 C-21 7 -21 7 -19 5 C-16.36 5 -13.72 5 -11 5 C-11.33 25.46 -11.66 45.92 -12 67 C-10.02 66.505 -10.02 66.505 -8 66 C-7.51811014 62.06282842 -7.03999963 58.12520624 -6.5625 54.1875 C-6.42779297 53.08728516 -6.29308594 51.98707031 -6.15429688 50.85351562 C-5.39653556 44.58812331 -4.73587737 38.3339505 -4.26147461 32.0402832 C-4 30 -4 30 -3 29 C-1.84193279 23.08098982 -0.24440182 14.51119636 -3 9 C-3.99 8.34 -4.98 7.68 -6 7 C-5.34 7 -4.68 7 -4 7 C-4 6.34 -4 5.68 -4 5 C-3.34 4.67 -2.68 4.34 -2 4 C-1.34 2.68 -0.68 1.36 0 0 Z " fill="#79BB3F" transform="translate(129,89)"/>
<path d="M0 0 C1.32 0.33 2.64 0.66 4 1 C3.7834375 2.05574219 3.7834375 2.05574219 3.5625 3.1328125 C1.05904105 16.4498233 1.4931727 27.21969048 6 40 C7.66147456 45.04855077 8.35204613 49.6463508 8.3125 54.9375 C8.31121094 55.67186279 8.30992188 56.40622559 8.30859375 57.1628418 C8.20785787 63.04896533 7.28407384 68.56794236 6.08081055 74.31445312 C4.13519502 83.81635148 4.19150345 92.02282957 8 101 C5 102 5 102 2.55859375 100.8203125 C-10.99011254 91.18108024 -19.60632132 73.2035116 -22.67041016 57.27099609 C-24.91090396 41.83316397 -22.92881533 27.34132357 -17 13 C-15.68 13 -14.36 13 -13 13 C-12.67 16.96 -12.34 20.92 -12 25 C-11.63648438 23.94941406 -11.27296875 22.89882812 -10.8984375 21.81640625 C-8.0796508 13.87616204 -5.2545482 6.70793387 0 0 Z " fill="#45C9AA" transform="translate(51,52)"/>
<path d="M0 0 C1.40625 1.45703125 1.40625 1.45703125 1.40625 5.45703125 C-3.72878344 4.81515207 -8.5880954 3.77430878 -13.59375 2.45703125 C-12.98789063 2.78574219 -12.38203125 3.11445312 -11.7578125 3.453125 C-4.89417606 7.34955861 0.73253256 11.99152362 6.40625 17.45703125 C7.29957031 18.26527344 7.29957031 18.26527344 8.2109375 19.08984375 C8.80261719 19.76660156 8.80261719 19.76660156 9.40625 20.45703125 C9.09375 22.64453125 9.09375 22.64453125 8.40625 24.45703125 C5.62332173 24.05947007 3.65949378 23.62089487 1.28125 22.08203125 C-6.95040107 17.4293589 -15.497027 17.16308061 -24.71875 17.51953125 C-41.10680908 17.79008883 -53.52595349 14.54778442 -68.08203125 7.1640625 C-73.27959584 4.6375489 -77.05519995 4.34093356 -82.84375 4.39453125 C-84.73867187 4.40806641 -84.73867187 4.40806641 -86.671875 4.421875 C-87.63609375 4.43347656 -88.6003125 4.44507812 -89.59375 4.45703125 C-89.92375 3.13703125 -90.25375 1.81703125 -90.59375 0.45703125 C-63.49212587 -19.76164072 -27.63574811 -17.89105335 0 0 Z " fill="#42D0A2" transform="translate(145.59375,35.54296875)"/>
<path d="M0 0 C1.75390625 0.12109375 1.75390625 0.12109375 4 1 C15.70060383 16.46898915 20.06188955 37.15935746 17.73193359 56.18945312 C15.64440313 69.12210293 10.567632 81.97893042 2 92 C0.68 91.67 -0.64 91.34 -2 91 C-1.67515625 90.09507812 -1.67515625 90.09507812 -1.34375 89.171875 C-1.0653125 88.37265625 -0.786875 87.5734375 -0.5 86.75 C-0.08234375 85.56664062 -0.08234375 85.56664062 0.34375 84.359375 C1.17864861 81.76587262 1.17864861 81.76587262 1 78 C0.5875 78.68964844 0.175 79.37929687 -0.25 80.08984375 C-4.91871142 87.68692103 -10.19609502 96.24571721 -18 101 C-18.99 100.67 -19.98 100.34 -21 100 C-20.31606031 96.68788755 -19.06261162 93.95998009 -17.5625 90.9375 C-13.49310191 81.96123348 -12.85348913 74.39262456 -13.5625 64.6875 C-14.55303311 50.92679245 -11.16270078 39.13531909 -4.9375 26.875 C-0.27214294 17.56272604 0.36082424 10.26344499 0 0 Z M3 69 C4 71 4 71 4 71 Z M2 73 C3 76 3 76 3 76 Z " fill="#46CDA7" transform="translate(160,50)"/>
<path d="M0 0 C0.33 0 0.66 0 1 0 C1.05534912 0.54938232 1.11069824 1.09876465 1.16772461 1.66479492 C1.42181253 4.17262423 1.67962299 6.68005761 1.9375 9.1875 C2.06801758 10.48397461 2.06801758 10.48397461 2.20117188 11.80664062 C2.33168945 13.06831055 2.33168945 13.06831055 2.46484375 14.35546875 C2.543396 15.12528076 2.62194824 15.89509277 2.70288086 16.68823242 C3.01842382 19.14334855 3.51455165 21.57275826 4 24 C22.48 23.67 40.96 23.34 60 23 C60.33 21.02 60.66 19.04 61 17 C61.33 17 61.66 17 62 17 C62 18.65 62 20.3 62 22 C63.3303125 21.9071875 63.3303125 21.9071875 64.6875 21.8125 C68.27437489 21.80532625 71.46127944 22.51459218 74.9375 23.375 C82.56027548 25.24959863 90.21086475 26.15009436 98 27 C98 27.99 98 28.98 98 30 C85.625 30.495 85.625 30.495 73 31 C74.98 31.66 76.96 32.32 79 33 C79 33.66 79 34.32 79 35 C47.65 35 16.3 35 -16 35 C-16 34.34 -16 33.68 -16 33 C-11.71 32.01 -7.42 31.02 -3 30 C-17.85 29.505 -17.85 29.505 -33 29 C-32 27 -32 27 -30.04150391 26.32983398 C-28.77185791 26.04088257 -28.77185791 26.04088257 -27.4765625 25.74609375 C-26.53683594 25.53146484 -25.59710938 25.31683594 -24.62890625 25.09570312 C-23.63761719 24.87849609 -22.64632812 24.66128906 -21.625 24.4375 C-20.67238281 24.21642578 -19.71976563 23.99535156 -18.73828125 23.76757812 C-12.17532394 22.2977954 -5.70870619 21.44686444 1 21 C0.92322021 20.2577417 0.84644043 19.5154834 0.76733398 18.75073242 C0.12849883 12.47614604 -0.12308131 6.3044982 0 0 Z " fill="#3CC2AA" transform="translate(71,143)"/>
<path d="M0 0 C25.41 0 50.82 0 77 0 C76 4 76 4 75 5 C74.76712992 6.68183948 74.58735834 8.3712416 74.4375 10.0625 C74.31181641 11.44115234 74.31181641 11.44115234 74.18359375 12.84765625 C74.12300781 13.55792969 74.06242187 14.26820312 74 15 C73.67 15 73.34 15 73 15 C72.97294271 13.22925083 72.95357805 11.45838289 72.9375 9.6875 C72.92589844 8.70136719 72.91429687 7.71523437 72.90234375 6.69921875 C73 4 73 4 74 1 C72.54052295 1.06006078 71.08220728 1.1488689 69.625 1.25 C68.81289062 1.29640625 68.00078125 1.3428125 67.1640625 1.390625 C64.81161073 1.7922092 64.81161073 1.7922092 63.7109375 4.046875 C63.47632813 4.69140625 63.24171875 5.3359375 63 6 C62.34 6 61.68 6 61 6 C61.309375 6.61875 61.61875 7.2375 61.9375 7.875 C65.34035211 14.68070422 64.44380891 22.62053221 63 30 C62.505 30.495 62.505 30.495 62 31 C61.72349652 33.21713078 61.50742925 35.44184358 61.31640625 37.66796875 C61.19219371 39.05014247 61.06784015 40.43230353 60.94335938 41.81445312 C60.7522616 43.99531668 60.56345026 46.17634161 60.37768555 48.35766602 C60.19681942 50.46170205 60.00704904 52.56479919 59.81640625 54.66796875 C59.70756104 55.92891357 59.59871582 57.1898584 59.48657227 58.48901367 C59.01708072 61.87674973 58.19352716 64.80323868 57 68 C55.68 68 54.36 68 53 68 C53 47.87 53 27.74 53 7 C50.69 7 48.38 7 46 7 C45.11116628 10.84862763 44.83822 14.48006789 44.75390625 18.42578125 C44.70641235 20.31768188 44.70641235 20.31768188 44.65795898 22.24780273 C44.64256073 22.91157928 44.62716248 23.57535583 44.61129761 24.25924683 C44.27139781 38.56118456 43.39592342 52.7583301 42 67 C39.625 67.625 39.625 67.625 37 68 C34.37822272 65.37822272 34.72948719 64.19786418 34.68115234 60.54052734 C34.66128265 59.39949554 34.64141296 58.25846375 34.62094116 57.08285522 C34.60938995 55.84637238 34.59783875 54.60988953 34.5859375 53.3359375 C34.56657135 52.07359283 34.5472052 50.81124817 34.5272522 49.51065063 C34.47750955 46.15365788 34.43627428 42.79677685 34.39910889 39.43963623 C34.35911153 36.01434336 34.30799981 32.58921854 34.2578125 29.1640625 C34.1615994 22.44281619 34.07659418 15.72149695 34 9 C32.68 8.67 31.36 8.34 30 8 C30 8.66 30 9.32 30 10 C28.02 10 26.04 10 24 10 C24.33 11.98 24.66 13.96 25 16 C24.34 16 23.68 16 23 16 C22 13 21 10 20 7 C20.89203125 6.93941406 21.7840625 6.87882812 22.703125 6.81640625 C24.45882812 6.69072266 24.45882812 6.69072266 26.25 6.5625 C27.41015625 6.48128906 28.5703125 6.40007812 29.765625 6.31640625 C32.32567884 6.0659662 34.53465371 5.6585193 37 5 C36.0212793 4.97494385 35.04255859 4.9498877 34.03417969 4.92407227 C30.39619296 4.82976017 26.75838657 4.72959797 23.12060547 4.62768555 C21.54740626 4.58442662 19.97416283 4.54274526 18.40087891 4.50268555 C16.13690885 4.44476338 13.87315949 4.38113286 11.609375 4.31640625 C10.90818542 4.29969376 10.20699585 4.28298126 9.48455811 4.26576233 C6.19766179 4.16648978 3.14857995 3.99187328 0 3 C0 2.01 0 1.02 0 0 Z M38 11 C36.75687501 12.02082376 36.75687501 12.02082376 36.87974548 14.17030334 C36.88196609 15.12738693 36.88418671 16.08447052 36.88647461 17.07055664 C36.88655014 18.15160172 36.88662567 19.23264679 36.88670349 20.34645081 C36.89186478 21.5224736 36.89702606 22.6984964 36.90234375 23.91015625 C36.9037587 25.10732773 36.90517365 26.30449921 36.90663147 27.53794861 C36.91225021 31.37949066 36.92480589 35.22097543 36.9375 39.0625 C36.94251259 41.65950437 36.94707591 44.25650965 36.95117188 46.85351562 C36.96222573 53.23569679 36.97898208 59.6178443 37 66 C38.98 65.505 38.98 65.505 41 65 C41 47.51 41 30.02 41 12 C40.01 11.67 39.02 11.34 38 11 Z M58 12 C54.85878753 15.14121247 55.70313783 24.90616825 55.46484375 29.33984375 C55.42186661 30.10623672 55.37888947 30.8726297 55.33460999 31.6622467 C55.24507781 33.27141991 55.15691441 34.88066982 55.07006836 36.48999023 C54.93802498 38.92780761 54.80037602 41.36526293 54.66210938 43.80273438 C54.57518463 45.37758565 54.48858537 46.95245492 54.40234375 48.52734375 C54.36173325 49.2432518 54.32112274 49.95915985 54.27928162 50.69676208 C54.00847225 55.80376517 53.96760961 60.88577759 54 66 C54.99 66 55.98 66 57 66 C57.48067767 61.56266234 57.95926227 57.12510123 58.4375 52.6875 C58.57220703 51.44419922 58.70691406 50.20089844 58.84570312 48.91992188 C60.54062683 33.90039655 60.54062683 33.90039655 61.0625 18.8125 C61.05347656 17.51957031 61.04445313 16.22664063 61.03515625 14.89453125 C61.02355469 13.93933594 61.01195312 12.98414062 61 12 C60.01 12 59.02 12 58 12 Z " fill="#DFEBCD" transform="translate(64,88)"/>
<path d="M0 0 C4.53124842 0.36542326 7.70195197 1.55542715 11.875 3.3125 C11.875 4.6325 11.875 5.9525 11.875 7.3125 C12.42027344 7.47105469 12.96554688 7.62960938 13.52734375 7.79296875 C18.69970269 9.39330545 23.18957545 11.45539825 27.86328125 14.1796875 C30.12474532 15.45313329 32.46365702 16.36257701 34.875 17.3125 C36.875 19.3125 36.875 19.3125 37 21.9375 C36.95875 22.72125 36.9175 23.505 36.875 24.3125 C30.92715903 24.61751749 25.90900781 23.4928719 20.1875 21.9375 C13.66946929 20.23090499 7.24402788 18.76488631 0.57421875 17.76953125 C-2.2754297 17.28702927 -5.01786056 16.61043143 -7.8125 15.875 C-13.63500978 14.35373418 -19.49507364 13.30230046 -25.42651367 12.31469727 C-28.42401755 11.81181627 -31.23571536 11.27559488 -34.125 10.3125 C-33.25 6.4375 -33.25 6.4375 -32.125 5.3125 C-24.1223161 3.67877825 -16.07294491 3.01874894 -7.92578125 2.65625 C-4.29390603 2.21049684 -3.7335365 0.37335365 0 0 Z " fill="#60CFAB" transform="translate(103.125,58.6875)"/>
<path d="M0 0 C1.75390625 0.12109375 1.75390625 0.12109375 4 1 C15.70060383 16.46898915 20.06188955 37.15935746 17.73193359 56.18945312 C15.64440313 69.12210293 10.567632 81.97893042 2 92 C0.68 91.67 -0.64 91.34 -2 91 C-1.67515625 90.09507812 -1.67515625 90.09507812 -1.34375 89.171875 C-1.0653125 88.37265625 -0.786875 87.5734375 -0.5 86.75 C-0.08234375 85.56664062 -0.08234375 85.56664062 0.34375 84.359375 C1.17864861 81.76587262 1.17864861 81.76587262 1 78 C0.5875 78.68964844 0.175 79.37929687 -0.25 80.08984375 C-4.91871142 87.68692103 -10.19609502 96.24571721 -18 101 C-18.99 100.67 -19.98 100.34 -21 100 C-20.31606031 96.68788755 -19.06261162 93.95998009 -17.5625 90.9375 C-13.49310191 81.96123348 -12.85348913 74.39262456 -13.5625 64.6875 C-14.55303311 50.92679245 -11.16270078 39.13531909 -4.9375 26.875 C-0.27214294 17.56272604 0.36082424 10.26344499 0 0 Z M2 4 C1.97873047 5.05574219 1.97873047 5.05574219 1.95703125 6.1328125 C1.58442464 13.8467763 -0.16841136 20.0469708 -2.94140625 27.1640625 C-4.11656962 29.80777422 -4.11656962 29.80777422 -4 32 C-4.66 32 -5.32 32 -6 32 C-6.27714844 33.04800781 -6.55429688 34.09601563 -6.83984375 35.17578125 C-7.20567952 36.55470067 -7.57156767 37.9336062 -7.9375 39.3125 C-8.11990234 40.00279297 -8.30230469 40.69308594 -8.49023438 41.40429688 C-9.2593261 44.29887844 -10.05261576 47.15784729 -11 50 C-11.0365458 51.84083881 -11.01404551 53.68311891 -10.95703125 55.5234375 C-10.47750701 77.60261274 -10.47750701 77.60261274 -14.125 86.58203125 C-15.07517596 89.2077407 -15.15914805 91.22982924 -15 94 C-14.34 94 -13.68 94 -13 94 C-11.43343464 92.13617367 -9.98939231 90.2787991 -8.5625 88.3125 C-7.78003906 87.25675781 -6.99757812 86.20101562 -6.19140625 85.11328125 C-2.47941574 79.83974036 -0.20856941 75.1345347 1.625 69 C1.8415625 68.30132812 2.058125 67.60265625 2.28125 66.8828125 C3.38211392 63.28122066 4.3478208 59.71017498 5 56 C5.12224626 65.0598059 4.83930594 73.97746114 4 83 C7.29217946 80.2733483 8.8506426 76.66430563 10.625 72.875 C10.93695313 72.24851562 11.24890625 71.62203125 11.5703125 70.9765625 C13.92245343 65.98840156 14.69924276 61.48011343 15 56 C15.06010254 55.02015137 15.12020508 54.04030273 15.18212891 53.03076172 C15.95009111 37.73880137 15.34172838 25.53858328 8 12 C7.25015002 10.51686952 6.50533009 9.03118493 5.765625 7.54296875 C4.89164063 5.78919922 4.89164063 5.78919922 4 4 C3.34 4 2.68 4 2 4 Z M3 69 C4 71 4 71 4 71 Z M2 73 C3 76 3 76 3 76 Z " fill="#D2EBE6" transform="translate(160,50)"/>
<path d="M0 0 C1.40625 1.45703125 1.40625 1.45703125 1.40625 5.45703125 C-3.72878344 4.81515207 -8.5880954 3.77430878 -13.59375 2.45703125 C-12.98789063 2.78574219 -12.38203125 3.11445312 -11.7578125 3.453125 C-4.89417606 7.34955861 0.73253256 11.99152362 6.40625 17.45703125 C7.29957031 18.26527344 7.29957031 18.26527344 8.2109375 19.08984375 C8.80261719 19.76660156 8.80261719 19.76660156 9.40625 20.45703125 C9.09375 22.64453125 9.09375 22.64453125 8.40625 24.45703125 C5.62332173 24.05947007 3.65949378 23.62089487 1.28125 22.08203125 C-6.95040107 17.4293589 -15.497027 17.16308061 -24.71875 17.51953125 C-41.10680908 17.79008883 -53.52595349 14.54778442 -68.08203125 7.1640625 C-73.27959584 4.6375489 -77.05519995 4.34093356 -82.84375 4.39453125 C-84.73867187 4.40806641 -84.73867187 4.40806641 -86.671875 4.421875 C-87.63609375 4.43347656 -88.6003125 4.44507812 -89.59375 4.45703125 C-89.92375 3.13703125 -90.25375 1.81703125 -90.59375 0.45703125 C-63.49212587 -19.76164072 -27.63574811 -17.89105335 0 0 Z M-73.59375 -7.54296875 C-73.92375 -6.88296875 -74.25375 -6.22296875 -74.59375 -5.54296875 C-76.5546875 -4.76171875 -76.5546875 -4.76171875 -78.96875 -4.04296875 C-82.02009757 -3.1285584 -83.8883949 -2.34653882 -86.59375 -0.54296875 C-86.59375 0.11703125 -86.59375 0.77703125 -86.59375 1.45703125 C-85.84351563 1.4828125 -85.09328125 1.50859375 -84.3203125 1.53515625 C-73.61200194 2.12856389 -65.88619955 5.42567379 -56.8203125 10.9921875 C-47.40671689 15.26591432 -38.23196109 15.82584155 -28.03125 15.51953125 C-17.00786906 15.22698528 -7.1338955 16.17787487 3.40625 19.45703125 C1.89372351 15.54019965 -0.39565276 13.84796337 -3.78125 11.45703125 C-4.70292969 10.79703125 -5.62460938 10.13703125 -6.57421875 9.45703125 C-12.82406595 5.31741706 -18.32977684 2.6693864 -25.53125 0.70703125 C-26.31048828 0.48660156 -27.08972656 0.26617187 -27.89257812 0.0390625 C-29.79064411 -0.49658802 -31.69188379 -1.02097173 -33.59375 -1.54296875 C-26.0794883 -2.02006473 -19.69072804 -0.82139781 -12.48461914 1.12207031 C-8.76977144 2.09319451 -6.26088012 2.59673269 -2.59375 1.45703125 C-7.1712801 -2.88675263 -12.38424282 -4.60272597 -18.21875 -6.66796875 C-19.15332031 -7.01472656 -20.08789062 -7.36148437 -21.05078125 -7.71875 C-38.14301834 -13.87195535 -56.70398169 -15.04953244 -73.59375 -7.54296875 Z " fill="#E4EFEC" transform="translate(145.59375,35.54296875)"/>
<path d="M0 0 C24.255 0.495 24.255 0.495 49 1 C49 1.33 49 1.66 49 2 C39.27088552 3.39879438 29.85816251 4.30384747 20 4 C20.474375 4.556875 20.94875 5.11375 21.4375 5.6875 C24.46376242 10.16636838 24.18905967 15.32751738 24.31640625 20.58203125 C24.33718735 21.31387131 24.35796844 22.04571136 24.37937927 22.79972839 C24.42251717 24.3503984 24.4635741 25.90112751 24.50268555 27.4519043 C24.56134524 29.76692716 24.62675515 32.081678 24.69335938 34.39648438 C24.96592904 44.26635462 25.05308685 54.12668765 25 64 C23.515 64.495 23.515 64.495 22 65 C19 63 19 63 18.49411011 61.22315979 C18.40203781 60.15085365 18.40203781 60.15085365 18.30810547 59.05688477 C18.19316238 57.84035973 18.19316238 57.84035973 18.07589722 56.59925842 C18.00702301 55.72216721 17.9381488 54.84507599 17.8671875 53.94140625 C17.78501984 53.04131332 17.70285217 52.1412204 17.61819458 51.21385193 C17.35736144 48.33105717 17.11547981 45.44705773 16.875 42.5625 C16.62384841 39.68194009 16.36880355 36.8017763 16.11038208 33.92185974 C15.95062921 32.12824333 15.79575196 30.33418468 15.64620972 28.53968811 C15.57588531 27.72551926 15.50556091 26.9113504 15.43310547 26.07250977 C15.37331512 25.35684341 15.31352478 24.64117706 15.25192261 23.90382385 C15.0320765 21.78115318 15.0320765 21.78115318 14 19 C13.93062938 16.77181559 13.91542916 14.54165476 13.9375 12.3125 C13.94652344 11.13300781 13.95554687 9.95351562 13.96484375 8.73828125 C13.97644531 7.83464844 13.98804687 6.93101563 14 6 C9.17557816 7.26946514 9.17557816 7.26946514 6 11 C5.81566499 13.68240269 5.81566499 13.68240269 6.0234375 16.70703125 C6.07508057 17.84551514 6.12672363 18.98399902 6.17993164 20.15698242 C6.27649048 21.96646362 6.27649048 21.96646362 6.375 23.8125 C6.48759842 26.2629333 6.5982934 28.71345485 6.70703125 31.1640625 C6.78751709 32.93185059 6.78751709 32.93185059 6.86962891 34.73535156 C7.09950617 40.49175377 7.09582369 46.23993152 7 52 C6.67 52 6.34 52 6 52 C5.93941406 51.21753906 5.87882812 50.43507812 5.81640625 49.62890625 C5.73261719 48.61699219 5.64882812 47.60507813 5.5625 46.5625 C5.48128906 45.55316406 5.40007812 44.54382813 5.31640625 43.50390625 C5.26788532 41.06359221 5.26788532 41.06359221 4 40 C3.4805908 36.70898578 3.24191952 33.37954533 2.9375 30.0625 C2.84662109 29.14919922 2.75574219 28.23589844 2.66210938 27.29492188 C1.0813192 10.50051197 1.0813192 10.50051197 3.875 5.9375 C6 4 6 4 8 3 C6.865625 2.87625 5.73125 2.7525 4.5625 2.625 C3.386875 2.41875 2.21125 2.2125 1 2 C0.67 1.34 0.34 0.68 0 0 Z M18 8 C16.13804563 9.86195437 16.85046801 12.90370509 16.84765625 15.390625 C16.8720398 23.74487399 17.49521025 32.0294821 18.22680664 40.34765625 C18.44087346 42.78846448 18.6439153 45.23002378 18.84570312 47.671875 C18.9785332 49.23442898 19.11197312 50.79693127 19.24609375 52.359375 C19.3065538 53.08429138 19.36701385 53.80920776 19.42930603 54.55609131 C19.69642638 57.54896932 20.04548155 60.13644464 21 63 C21.99 63 22.98 63 24 63 C23.54171307 49.70036429 22.92563525 36.40841742 22.125 23.125 C22.02566162 21.21811401 22.02566162 21.21811401 21.92431641 19.27270508 C21.84874512 18.09216553 21.77317383 16.91162598 21.6953125 15.6953125 C21.63359863 14.64359863 21.57188477 13.59188477 21.50830078 12.50830078 C21.23555904 9.64765214 21.23555904 9.64765214 18 8 Z " fill="#CFE3AD" transform="translate(64,91)"/>
<path d="M0 0 C0.33 0 0.66 0 1 0 C1 1.65 1 3.3 1 5 C2.3303125 4.9071875 2.3303125 4.9071875 3.6875 4.8125 C7.27437489 4.80532625 10.46127944 5.51459218 13.9375 6.375 C21.56027548 8.24959863 29.21086475 9.15009436 37 10 C37 10.99 37 11.98 37 13 C24.625 13.495 24.625 13.495 12 14 C13.98 14.66 15.96 15.32 18 16 C18 16.66 18 17.32 18 18 C-13.35 18 -44.7 18 -77 18 C-77 17.34 -77 16.68 -77 16 C-74.36 15.67 -71.72 15.34 -69 15 C-69 15.33 -69 15.66 -69 16 C-43.59 16 -18.18 16 8 16 C0.575 15.01 0.575 15.01 -7 14 C-7.99 13.505 -7.99 13.505 -9 13 C-9 12.01 -9 11.02 -9 10 C-5.7 9.67 -2.4 9.34 1 9 C1 8.34 1 7.68 1 7 C0.505 6.505 0.505 6.505 0 6 C-0.04080783 4.00041636 -0.04254356 1.99954746 0 0 Z " fill="#6FD0B2" transform="translate(132,160)"/>
<path d="M0 0 C1.15957207 3.47871621 0.77456651 4.34219645 -0.4375 7.6875 C-0.86869141 8.89986328 -0.86869141 8.89986328 -1.30859375 10.13671875 C-1.65083984 11.05904297 -1.65083984 11.05904297 -2 12 C-2.66 12 -3.32 12 -4 12 C-5.52372601 22.99153812 -6.47872802 33.91611166 -7 45 C-12.0833548 39.9166452 -11.10679486 29.16021414 -11.13623047 22.29467773 C-11.12000908 18.52884808 -11.07156672 14.76520476 -11 11 C-11.66 11 -12.32 11 -13 11 C-13.13277344 11.61488281 -13.26554687 12.22976562 -13.40234375 12.86328125 C-13.57894531 13.67152344 -13.75554688 14.47976562 -13.9375 15.3125 C-14.11152344 16.11300781 -14.28554688 16.91351563 -14.46484375 17.73828125 C-15 20 -15 20 -16 23 C-17.65532831 45.66752113 -15.69961988 63.67103903 -2 82 C-1.34 82.66 -0.68 83.32 0 84 C-0.33 84.99 -0.66 85.98 -1 87 C-15.6220105 70.55951612 -20.45037631 51.15860026 -19.24511719 29.60595703 C-18.50165124 21.70181808 -16.02212918 14.31028544 -13 7 C-11.68 7 -10.36 7 -9 7 C-8.67 10.96 -8.34 14.92 -8 19 C-7.59007812 17.87980469 -7.18015625 16.75960937 -6.7578125 15.60546875 C-6.21374599 14.132737 -5.66946389 12.66008489 -5.125 11.1875 C-4.85558594 10.44951172 -4.58617187 9.71152344 -4.30859375 8.95117188 C-4.04433594 8.23896484 -3.78007813 7.52675781 -3.5078125 6.79296875 C-3.26691895 6.1383667 -3.02602539 5.48376465 -2.77783203 4.80932617 C-2 3 -2 3 0 0 Z " fill="#EFF5F3" transform="translate(47,58)"/>
<path d="M0 0 C1.75390625 0.12109375 1.75390625 0.12109375 4 1 C15.70060383 16.46898915 20.06188955 37.15935746 17.73193359 56.18945312 C15.93614075 67.31473271 11.79681849 77.36373031 6 87 C5.01 87.495 5.01 87.495 4 88 C5.79854799 81.01090562 8.40615098 74.79395891 11.6953125 68.37109375 C13.31525647 64.18543013 13.7299839 60.45526562 14 56 C14.06074707 55.01829834 14.12149414 54.03659668 14.18408203 53.02514648 C14.94875819 37.63925413 14.22146034 25.66974505 7 12 C6.45475662 10.70733352 5.91927369 9.41049849 5.39453125 8.109375 C4.35549364 4.9139559 4.35549364 4.9139559 2 4 C2.06960937 4.680625 2.13921875 5.36125 2.2109375 6.0625 C2.75240418 15.75733197 -0.2699224 23.25207992 -4 32 C-4.66 32 -5.32 32 -6 32 C-6.66 34.31 -7.32 36.62 -8 39 C-9.16367488 35.50897535 -8.86603733 35.06897763 -7.3828125 31.875 C-7.02316406 31.08609375 -6.66351563 30.2971875 -6.29296875 29.484375 C-5.90753906 28.66453125 -5.52210938 27.8446875 -5.125 27 C-4.3765907 25.37546651 -3.6291542 23.75048442 -2.8828125 22.125 C-2.54652832 21.40570313 -2.21024414 20.68640625 -1.86376953 19.9453125 C0.03999265 15.65781192 0.11836623 11.91501817 0.0625 7.3125 C0.05798828 6.61060547 0.05347656 5.90871094 0.04882812 5.18554688 C0.03706927 3.45699462 0.01913454 1.72848635 0 0 Z " fill="#DBEDE8" transform="translate(160,50)"/>
<path d="M0 0 C1.32 0.33 2.64 0.66 4 1 C3.7834375 2.05574219 3.7834375 2.05574219 3.5625 3.1328125 C1.05904105 16.4498233 1.4931727 27.21969048 6 40 C7.66147456 45.04855077 8.35204613 49.6463508 8.3125 54.9375 C8.31121094 55.67186279 8.30992188 56.40622559 8.30859375 57.1628418 C8.20785787 63.04896533 7.28407384 68.56794236 6.08081055 74.31445312 C4.13519502 83.81635148 4.19150345 92.02282957 8 101 C5 102 5 102 2.5625 100.8125 C0.08512378 99.06020951 -1.9360407 97.21684517 -4 95 C-3.505 94.01 -3.505 94.01 -3 93 C-1.50260417 94.26953125 -0.00520833 95.5390625 1.4921875 96.80859375 C3.00594079 98.0878152 3.00594079 98.0878152 5 99 C4.51273438 98.17242187 4.02546875 97.34484375 3.5234375 96.4921875 C1.81352979 92.5725529 1.55312943 89.31744987 1.625 85.125 C1.61339844 84.45597656 1.60179687 83.78695312 1.58984375 83.09765625 C1.6109953 79.43843772 2.03354187 76.62664826 3.4921875 73.26171875 C5.70000742 67.86804765 5.51379067 62.44165818 5.5 56.6875 C5.52835938 55.62337891 5.55671875 54.55925781 5.5859375 53.46289062 C5.6028813 46.52017018 4.38463904 41.51547153 1.17382812 35.35083008 C-1.38795141 30.22034441 -1.18319183 25.30966447 -1.1875 19.6875 C-1.19974609 18.85798828 -1.21199219 18.02847656 -1.22460938 17.17382812 C-1.23673399 12.05320079 -0.6559124 7.84992526 1 3 C0.34 3 -0.32 3 -1 3 C-1.33 3.99 -1.66 4.98 -2 6 C-2.33 5.34 -2.66 4.68 -3 4 C-2.01 2.68 -1.02 1.36 0 0 Z " fill="#E5F0EC" transform="translate(51,52)"/>
<path d="M0 0 C12.9486433 0.89300988 25.9492353 4.45184132 36 13 C36 14.32 36 15.64 36 17 C30.86496656 16.35812082 26.0056546 15.31727753 21 14 C21.60585937 14.32871094 22.21171875 14.65742187 22.8359375 14.99609375 C39.77134897 24.61019657 39.77134897 24.61019657 41.77734375 31.77734375 C41.85082031 32.51082031 41.92429688 33.24429688 42 34 C41.01 34 40.02 34 39 34 C39 33.34 39 32.68 39 32 C38.34 31.67 37.68 31.34 37 31 C36.72542969 30.3915625 36.45085937 29.783125 36.16796875 29.15625 C34.66525489 26.38200903 32.91940654 25.25656796 30.3125 23.5 C29.06919922 22.64921875 29.06919922 22.64921875 27.80078125 21.78125 C21.3020987 17.64819666 15.43348004 14.94728074 8.0625 12.75 C7.18787109 12.481875 6.31324219 12.21375 5.41210938 11.9375 C3.27691125 11.28410604 1.13969383 10.63848541 -1 10 C-1 9.67 -1 9.34 -1 9 C7.98591947 8.37669923 15.78960835 9.88838195 24.41015625 12.125 C27.86995415 13.11840508 27.86995415 13.11840508 31 13 C25.98004133 9.25363875 20.84991296 7.29772132 14.9375 5.3125 C14.05255859 5.00505859 13.16761719 4.69761719 12.25585938 4.38085938 C8.1819702 2.98418469 4.24227952 1.78150955 0 1 C0 0.67 0 0.34 0 0 Z " fill="#D5EAE3" transform="translate(111,24)"/>
<path d="M0 0 C1.92159294 1.92159294 1.12910435 4.77910922 1.13894653 7.33587646 C1.1369223 8.23050598 1.13489807 9.1251355 1.1328125 10.046875 C1.13376923 10.96905823 1.13472595 11.89124146 1.13571167 12.84136963 C1.13639438 14.80521716 1.13453381 16.76906692 1.13037109 18.73291016 C1.12509668 21.695692 1.1302747 24.65831712 1.13671875 27.62109375 C1.1398377 37.46326698 1.01887014 47.20120788 0 57 C-2.375 57.625 -2.375 57.625 -5 58 C-7 56 -7 56 -7.24050903 53.67147827 C-7.23606781 52.6988504 -7.23162659 51.72622253 -7.22705078 50.72412109 C-7.22689972 49.6231308 -7.22674866 48.5221405 -7.22659302 47.38778687 C-7.21627045 46.19505157 -7.20594788 45.00231628 -7.1953125 43.7734375 C-7.1924826 42.55548492 -7.18965271 41.33753235 -7.18673706 40.08267212 C-7.17551256 36.18001617 -7.15040372 32.27758697 -7.125 28.375 C-7.11497314 25.73437831 -7.10584678 23.09375303 -7.09765625 20.453125 C-7.07556581 13.9686722 -7.04206592 7.4843523 -7 1 C-4.51588385 -0.24205807 -2.74800896 -0.14092354 0 0 Z M-4 1 C-5.24312499 2.02082376 -5.24312499 2.02082376 -5.12025452 4.17030334 C-5.11803391 5.12738693 -5.11581329 6.08447052 -5.11352539 7.07055664 C-5.11344986 8.15160172 -5.11337433 9.23264679 -5.11329651 10.34645081 C-5.10813522 11.5224736 -5.10297394 12.6984964 -5.09765625 13.91015625 C-5.0962413 15.10732773 -5.09482635 16.30449921 -5.09336853 17.53794861 C-5.08774979 21.37949066 -5.07519411 25.22097543 -5.0625 29.0625 C-5.05748741 31.65950437 -5.05292409 34.25650965 -5.04882812 36.85351562 C-5.03777427 43.23569679 -5.02101792 49.6178443 -5 56 C-3.02 55.505 -3.02 55.505 -1 55 C-1 37.51 -1 20.02 -1 2 C-1.99 1.67 -2.98 1.34 -4 1 Z " fill="#E0EAD5" transform="translate(106,98)"/>
<path d="M0 0 C1.78010958 4.60508549 2.33152952 8.78951846 2.4140625 13.6796875 C2.43342865 14.41011261 2.4527948 15.14053772 2.4727478 15.89309692 C2.53208585 18.2202814 2.578528 20.54752708 2.625 22.875 C2.6632648 24.39845774 2.70232117 25.92189582 2.7421875 27.4453125 C2.98693306 37.29770749 3.04538394 47.14496117 3 57 C1.515 57.495 1.515 57.495 0 58 C-0.99 57.34 -1.98 56.68 -3 56 C-3.55151152 53.06342468 -3.91452587 50.29358922 -4.16796875 47.328125 C-4.25250809 46.45412048 -4.33704742 45.58011597 -4.42414856 44.67962646 C-4.60109998 42.82072244 -4.77129029 40.96116451 -4.93530273 39.10107422 C-5.18295575 36.30137245 -5.45181191 33.50438219 -5.72460938 30.70703125 C-6.66448712 20.77165572 -7.2748438 10.98704442 -7 1 C-4.53721199 -0.231394 -2.7204945 -0.07159196 0 0 Z M-4 1 C-5.86195437 2.86195437 -5.14953199 5.90370509 -5.15234375 8.390625 C-5.1279602 16.74487399 -4.50478975 25.0294821 -3.77319336 33.34765625 C-3.55912654 35.78846448 -3.3560847 38.23002378 -3.15429688 40.671875 C-3.0214668 42.23442898 -2.88802688 43.79693127 -2.75390625 45.359375 C-2.6934462 46.08429138 -2.63298615 46.80920776 -2.57069397 47.55609131 C-2.30357362 50.54896932 -1.95451845 53.13644464 -1 56 C-0.01 56 0.98 56 2 56 C1.54171307 42.70036429 0.92563525 29.40841742 0.125 16.125 C0.02566162 14.21811401 0.02566162 14.21811401 -0.07568359 12.27270508 C-0.15125488 11.09216553 -0.22682617 9.91162598 -0.3046875 8.6953125 C-0.36640137 7.64359863 -0.42811523 6.59188477 -0.49169922 5.50830078 C-0.76444096 2.64765214 -0.76444096 2.64765214 -4 1 Z " fill="#E5EBDC" transform="translate(86,98)"/>
<path d="M0 0 C9.29975757 0.75643961 18.1255411 3.25916262 27 6 C27.33 5.01 27.66 4.02 28 3 C30.475 3.495 30.475 3.495 33 4 C33 4.66 33 5.32 33 6 C33.78375 5.95875 34.5675 5.9175 35.375 5.875 C38 6 38 6 40 8 C40 8.99 40 9.98 40 11 C32.98916641 11.60670675 26.76774314 10.36816556 20.03613281 8.56567383 C15.02082166 7.22688077 10.04049129 6.286737 4.90625 5.50390625 C-0.13222839 4.63029911 -5.06090435 3.31358927 -10 2 C-10 1.67 -10 1.34 -10 1 C-9.36191406 1.01160156 -8.72382812 1.02320312 -8.06640625 1.03515625 C-7.24011719 1.04417969 -6.41382812 1.05320312 -5.5625 1.0625 C-4.32693359 1.07990234 -4.32693359 1.07990234 -3.06640625 1.09765625 C-1.00836062 1.23267348 -1.00836062 1.23267348 0 0 Z " fill="#5FCAB4" transform="translate(99,71)"/>
<path d="M0 0 C25.41 0 50.82 0 77 0 C76 4 76 4 75 5 C74.76712992 6.68183948 74.58735834 8.3712416 74.4375 10.0625 C74.31181641 11.44115234 74.31181641 11.44115234 74.18359375 12.84765625 C74.12300781 13.55792969 74.06242187 14.26820312 74 15 C73.67 15 73.34 15 73 15 C72.97294271 13.22925083 72.95357805 11.45838289 72.9375 9.6875 C72.92589844 8.70136719 72.91429687 7.71523437 72.90234375 6.69921875 C73 4 73 4 74 1 C72.92205925 1.24682777 72.92205925 1.24682777 71.82234192 1.49864197 C69.0655842 1.98834969 66.6364483 2.08538743 63.8425293 2.02172852 C62.84186935 2.00163223 61.84120941 1.98153595 60.81022644 1.96083069 C59.7423439 1.93379562 58.67446136 1.90676056 57.57421875 1.87890625 C56.47149124 1.85529526 55.36876373 1.83168427 54.23262024 1.80735779 C50.71744315 1.73090671 47.20249671 1.64680228 43.6875 1.5625 C41.3014435 1.50926076 38.91537582 1.45652049 36.52929688 1.40429688 C30.68605582 1.27531667 24.84298551 1.14005569 19 1 C19 1.66 19 2.32 19 3 C31.21 3 43.42 3 56 3 C56 3.66 56 4.32 56 5 C48.66752489 4.88238115 41.33519808 4.75754993 34.00292969 4.62768555 C31.50816639 4.5843534 29.01337377 4.54267709 26.51855469 4.50268555 C22.93415484 4.44494164 19.3499024 4.38125865 15.765625 4.31640625 C14.64883362 4.29969376 13.53204224 4.28298126 12.38140869 4.26576233 C11.34063171 4.24581711 10.29985474 4.22587189 9.22753906 4.20532227 C8.31264709 4.18977798 7.39775513 4.1742337 6.45513916 4.15821838 C4.1744773 4.01124397 2.18869415 3.63722814 0 3 C0 2.01 0 1.02 0 0 Z " fill="#B8DF71" transform="translate(64,88)"/>
<path d="M0 0 C5.39768642 -0.3373554 10.30298291 0.05855118 15 3 C15.625 5.5 15.625 5.5 16 8 C18.96707046 9.85916824 18.96707046 9.85916824 22 11 C22 11.66 22 12.32 22 13 C4.1392453 12.24385126 4.1392453 12.24385126 -3 9 C-3.33 8.01 -3.66 7.02 -4 6 C-3.34 6 -2.68 6 -2 6 C-1.34 4.02 -0.68 2.04 0 0 Z " fill="#4ED6A3" transform="translate(100,59)"/>
<path d="M0 0 C0.495 1.485 0.495 1.485 1 3 C-11.375 3.495 -11.375 3.495 -24 4 C-22.02 4.66 -20.04 5.32 -18 6 C-18 6.66 -18 7.32 -18 8 C-49.35 8 -80.7 8 -113 8 C-113 7.34 -113 6.68 -113 6 C-110.36 5.67 -107.72 5.34 -105 5 C-105 5.33 -105 5.66 -105 6 C-79.59 6 -54.18 6 -28 6 C-32.95 5.01 -32.95 5.01 -38 4 C-38 3.34 -38 2.68 -38 2 C-25.46 2 -12.92 2 0 2 C0 1.34 0 0.68 0 0 Z " fill="#9CCECE" transform="translate(168,170)"/>
<path d="M0 0 C5.76558376 1.67651726 10.80147083 3.8438111 15.98828125 6.8671875 C18.24974532 8.14063329 20.58865702 9.05007701 23 10 C25 12 25 12 25.125 14.625 C25.08375 15.40875 25.0425 16.1925 25 17 C22.69 17 20.38 17 18 17 C18 16.67 18 16.34 18 16 C19.98 16 21.96 16 24 16 C23.36020151 13.96758273 23.36020151 13.96758273 22 12 C19.47266765 11.34444881 19.47266765 11.34444881 17 11 C16.505 10.01 16.505 10.01 16 9 C14.68 9 13.36 9 12 9 C11.67 9.66 11.34 10.32 11 11 C5.11960465 10.27601152 -0.55593757 9.01351757 -6.3125 7.625 C-7.6418457 7.31175781 -7.6418457 7.31175781 -8.99804688 6.9921875 C-15.06859841 5.53986007 -21.04055148 3.85505 -27 2 C-27 1.67 -27 1.34 -27 1 C-20.80432061 0.69529446 -15.98317062 1.42469957 -10.0625 3.19921875 C-4.46859701 4.66191022 1.26981845 5.28895557 7 6 C4.8092961 3.70886268 2.90542812 2.3024333 0 1 C0 0.67 0 0.34 0 0 Z " fill="#7BCDBD" transform="translate(115,66)"/>
<path d="M0 0 C0.66 0 1.32 0 2 0 C2.391875 0.94875 2.78375 1.8975 3.1875 2.875 C5.19793856 6.34127338 6.22699642 6.9802693 10 8 C9.8125 9.8125 9.8125 9.8125 9 12 C7.34467377 13.01866229 5.67739862 14.01810813 4 15 C2.67206394 17.06700655 2.67206394 17.06700655 2 19 C1.01 19 0.02 19 -1 19 C-2.34331654 17.00669158 -3.67594012 15.00615134 -5 13 C-7.10039331 11.61131484 -7.10039331 11.61131484 -9 11 C-9 10.01 -9 9.02 -9 8 C-7.6078125 7.4121875 -7.6078125 7.4121875 -6.1875 6.8125 C-2.74078196 4.85260151 -1.83913242 3.40239497 0 0 Z " fill="#EDEFEF" transform="translate(63,65)"/>
<path d="M0 0 C1.37953745 0.01495729 2.75901915 0.03563562 4.13841248 0.06056213 C5.26516891 0.07497345 5.26516891 0.07497345 6.41468811 0.0896759 C8.90919536 0.12278046 11.40353366 0.16306874 13.89793396 0.2033844 C15.62285762 0.22767434 17.34778762 0.25151845 19.07272339 0.27493286 C23.62171112 0.33788591 28.17058732 0.40692054 32.71946716 0.47718811 C37.35768029 0.54777049 41.99597275 0.61264778 46.63426208 0.67799377 C55.74177113 0.80715064 64.84917261 0.94272729 73.95652771 1.08229065 C73.95652771 1.74229065 73.95652771 2.40229065 73.95652771 3.08229065 C48.54652771 3.08229065 23.13652771 3.08229065 -3.04347229 3.08229065 C-3.37347229 4.07229065 -3.70347229 5.06229065 -4.04347229 6.08229065 C-4.08619329 4.4161716 -4.08411061 2.7484618 -4.04347229 1.08229065 C-3.04347229 0.08229065 -3.04347229 0.08229065 0 0 Z " fill="#DAE8C6" transform="translate(67.04347229003906,84.91770935058594)"/>
<path d="M0 0 C1 2 1 2 0.43920898 3.93237305 C0.14860596 4.72168213 -0.14199707 5.51099121 -0.44140625 6.32421875 C-2.41287101 12.56103317 -2.17563073 18.33572217 -1.9375 24.8125 C-1.75973013 33.36226977 -1.8402823 40.50068614 -5.125 48.484375 C-6.17067673 51.04678638 -6.17067673 51.04678638 -6 54.1171875 C-6 58.03718161 -7.6736952 59.94672495 -10 63 C-10.99 62.67 -11.98 62.34 -13 62 C-12.31606031 58.68788755 -11.06261162 55.95998009 -9.5625 52.9375 C-5.09782247 43.08932724 -4.96812113 34.79412287 -5.74365234 24.21679688 C-6.19747075 16.83233422 -6.4443211 7.01280128 -1.390625 1.125 C-0.93171875 0.75375 -0.4728125 0.3825 0 0 Z " fill="#CCE7E0" transform="translate(152,88)"/>
<path d="M0 0 C4.80585058 0.09342811 9.61119094 0.19949659 14.41650391 0.31738281 C16.0518424 0.35570852 17.68726624 0.39055507 19.32275391 0.421875 C21.6712091 0.46744842 24.01907495 0.52545367 26.3671875 0.5859375 C27.46726639 0.60326431 27.46726639 0.60326431 28.58956909 0.62094116 C33.77225659 0.77225659 33.77225659 0.77225659 36 3 C34.02 3.99 34.02 3.99 32 5 C51.47 5 70.94 5 91 5 C91 4.67 91 4.34 91 4 C101.55808656 4.96355353 101.55808656 4.96355353 106 6 C106 6.33 106 6.66 106 7 C77.95 7 49.9 7 21 7 C24 5 24 5 29 3 C14.15 2.505 14.15 2.505 -1 2 C-0.67 1.34 -0.34 0.68 0 0 Z " fill="#5FC1BA" transform="translate(39,170)"/>
<path d="M0 0 C1.76462683 3.08809695 2 4.23312136 2 8 C2.66 8.33 3.32 8.66 4 9 C3.67 10.32 3.34 11.64 3 13 C5.36943547 14.18471774 6.80378875 14.12680673 9.44628906 14.12939453 C10.36774719 14.13254669 11.28920532 14.13569885 12.23858643 14.13894653 C13.23750916 14.1369223 14.23643188 14.13489807 15.265625 14.1328125 C16.29177917 14.13376923 17.31793335 14.13472595 18.37518311 14.13571167 C20.55074118 14.13639322 22.72630128 14.13454067 24.90185547 14.13037109 C28.22237772 14.12504431 31.54276335 14.13030563 34.86328125 14.13671875 C36.9765628 14.13605754 39.08984426 14.13477548 41.203125 14.1328125 C42.19395081 14.13483673 43.18477661 14.13686096 44.20562744 14.13894653 C48.91742087 14.12304582 53.36653566 13.97981911 58 13 C58 13.99 58 14.98 58 16 C55.45061185 17.27469407 53.66959002 17.12016184 50.81591797 17.11352539 C49.73494843 17.11344986 48.65397888 17.11337433 47.54025269 17.11329651 C45.78396042 17.10555458 45.78396042 17.10555458 43.9921875 17.09765625 C42.79643097 17.0962413 41.60067444 17.09482635 40.36868286 17.09336853 C36.53743013 17.08775663 32.70623516 17.07520208 28.875 17.0625 C26.28255293 17.05748653 23.69010494 17.05292336 21.09765625 17.04882812 C14.73175102 17.03778333 8.36587963 17.02103359 2 17 C0.2823262 12.99110388 -0.22129035 10.06871086 -0.125 5.6875 C-0.10695313 4.61886719 -0.08890625 3.55023438 -0.0703125 2.44921875 C-0.04710938 1.64097656 -0.02390625 0.83273438 0 0 Z " fill="#3DA645" transform="translate(73,150)"/>
<path d="M0 0 C0.33 0 0.66 0 1 0 C1.34243127 3.26994537 1.67219142 6.54105899 2 9.8125 C2.09539062 10.72193359 2.19078125 11.63136719 2.2890625 12.56835938 C2.93194527 19.0660674 3.11400439 25.47245684 3 32 C2.24904053 32.14099121 1.49808105 32.28198242 0.72436523 32.42724609 C-2.70523522 33.07312288 -6.13386534 33.72401657 -9.5625 34.375 C-10.74392578 34.59671875 -11.92535156 34.8184375 -13.14257812 35.046875 C-14.29306641 35.26601562 -15.44355469 35.48515625 -16.62890625 35.7109375 C-17.68150635 35.90993652 -18.73410645 36.10893555 -19.81860352 36.31396484 C-23.24965366 37.05383522 -26.62513131 38.0357518 -30 39 C-14.16 39.495 -14.16 39.495 2 40 C-1.44450737 42.29633824 -3.93812283 42.54016485 -8 43 C-8 42.67 -8 42.34 -8 42 C-16.25 41.67 -24.5 41.34 -33 41 C-33 39.68 -33 38.36 -33 37 C-5.91836309 30.86268735 -5.91836309 30.86268735 2 31 C1.855625 30.01902344 1.71125 29.03804687 1.5625 28.02734375 C0.24387558 18.6065832 -0.24604531 9.51375205 0 0 Z " fill="#E2ECE8" transform="translate(69,132)"/>
<path d="M0 0 C0.33 0 0.66 0 1 0 C1.14411159 10.06951156 0.7622308 20.08243096 0.25537109 30.13671875 C0.12592287 32.73150112 0.00606946 35.32661106 -0.11328125 37.921875 C-0.63341294 48.68454106 -1.5862609 59.31803021 -3 70 C-2.10692139 70.11275269 -2.10692139 70.11275269 -1.19580078 70.2277832 C1.4964599 70.57555326 4.18553564 70.94375352 6.875 71.3125 C8.28072266 71.48942383 8.28072266 71.48942383 9.71484375 71.66992188 C10.61074219 71.79560547 11.50664062 71.92128906 12.4296875 72.05078125 C13.67081299 72.21574097 13.67081299 72.21574097 14.93701172 72.3840332 C17 73 17 73 19 76 C16.27246094 75.54541016 13.54492188 75.09082031 10.81738281 74.63623047 C10.04491211 74.50748535 9.27244141 74.37874023 8.4765625 74.24609375 C5.2265625 73.70442708 1.9765625 73.16276042 -1.2734375 72.62109375 C-2.50320312 72.41613281 -3.73296875 72.21117187 -5 72 C-4.73773943 67.12508372 -4.47108244 62.25043467 -4.20043945 57.37597656 C-4.1090759 55.71946648 -4.0188909 54.06289094 -3.92993164 52.40625 C-3.80147951 50.018045 -3.66871937 47.63011147 -3.53515625 45.2421875 C-3.49656998 44.50757294 -3.4579837 43.77295837 -3.41822815 43.01608276 C-3.18575365 38.94272653 -2.68210063 35.017999 -2 31 C-1.79330473 28.54649146 -1.6171671 26.09029591 -1.46484375 23.6328125 C-1.42186661 22.95322479 -1.37888947 22.27363708 -1.33460999 21.57345581 C-1.19934775 19.42413967 -1.06835499 17.2745885 -0.9375 15.125 C-0.84598626 13.65883647 -0.75419215 12.1926904 -0.66210938 10.7265625 C-0.43816455 7.1512379 -0.21804535 3.5756898 0 0 Z " fill="#E1EBD7" transform="translate(138,93)"/>
<path d="M0 0 C2.73245239 0.1307373 2.73245239 0.1307373 4.73245239 2.1307373 C4.57623655 3.68189464 4.39386177 5.23255107 4.12356567 6.76794434 C3.63112224 9.74289288 3.30702943 12.72311859 2.97854614 15.72058105 C2.78035278 17.51398926 2.78035278 17.51398926 2.57815552 19.34362793 C2.37609497 21.18730957 2.37609497 21.18730957 2.16995239 23.0682373 C2.03137817 24.32442871 1.89280396 25.58062012 1.75003052 26.87487793 C1.40983979 29.96005591 1.070678 33.04534337 0.73245239 36.1307373 C0.40245239 36.1307373 0.07245239 36.1307373 -0.26754761 36.1307373 C-0.59601476 12.11613876 -0.59601476 12.11613876 2.73245239 2.1307373 C-19.37754761 2.1307373 -41.48754761 2.1307373 -64.26754761 2.1307373 C-64.26754761 1.8007373 -64.26754761 1.4707373 -64.26754761 1.1307373 C-56.41776922 0.99976905 -48.56798209 0.8693384 -40.71818352 0.73958588 C-37.07284994 0.67931395 -33.42751958 0.61885986 -29.78219604 0.5579834 C-26.26144229 0.49919404 -22.74068079 0.44089112 -19.21991348 0.38291931 C-17.22918399 0.35001537 -15.23846276 0.31661331 -13.2477417 0.28320312 C-12.02692902 0.26318237 -10.80611633 0.24316162 -9.54830933 0.22253418 C-8.47797455 0.20476929 -7.40763977 0.18700439 -6.30487061 0.16870117 C-4.20265908 0.14242538 -2.10069494 0.08405056 0 0 Z " fill="#FCFCFC" transform="translate(138.26754760742188,83.8692626953125)"/>
<path d="M0 0 C2.64 0 5.28 0 8 0 C8.33 0.99 8.66 1.98 9 3 C17.79539773 3.84726791 26.58393855 4.28631628 35.41235352 4.55761719 C37.59091311 4.62589043 39.76902909 4.7034124 41.94726562 4.78125 C43.34112804 4.8260776 44.73500783 4.87036883 46.12890625 4.9140625 C48.00171265 4.9752124 48.00171265 4.9752124 49.91235352 5.03759766 C53.03877124 5.15632806 53.03877124 5.15632806 56 4 C59.1875 6.3125 59.1875 6.3125 62 9 C62 9.66 62 10.32 62 11 C61.3709375 10.79503906 60.741875 10.59007812 60.09375 10.37890625 C59.2378125 10.10949219 58.381875 9.84007812 57.5 9.5625 C56.6646875 9.29566406 55.829375 9.02882813 54.96875 8.75390625 C48.04138002 6.99471887 41.5087156 6.96345235 34.40429688 7.1159668 C8.23412441 7.64639434 8.23412441 7.64639434 1.15625 1.36328125 C0.7746875 0.91339844 0.393125 0.46351562 0 0 Z " fill="#5DC3B6" transform="translate(87,44)"/>
<path d="M0 0 C0.33 0 0.66 0 1 0 C1.05534912 0.54938232 1.11069824 1.09876465 1.16772461 1.66479492 C1.42181253 4.17262423 1.67962299 6.68005761 1.9375 9.1875 C2.02451172 10.05181641 2.11152344 10.91613281 2.20117188 11.80664062 C2.28818359 12.64775391 2.37519531 13.48886719 2.46484375 14.35546875 C2.543396 15.12528076 2.62194824 15.89509277 2.70288086 16.68823242 C3.01842382 19.14334855 3.51455165 21.57275826 4 24 C9.94 24.33 15.88 24.66 22 25 C22 25.33 22 25.66 22 26 C12.1 26.495 12.1 26.495 2 27 C1.67 26.01 1.34 25.02 1 24 C-0.9587043 24.14076315 -2.91696093 24.2877676 -4.875 24.4375 C-6.51082031 24.55931641 -6.51082031 24.55931641 -8.1796875 24.68359375 C-10.94728971 24.83001703 -10.94728971 24.83001703 -13 26 C-15.54615009 26.23172827 -18.07396225 26.41894529 -20.625 26.5625 C-21.33140625 26.60568359 -22.0378125 26.64886719 -22.765625 26.69335938 C-24.51018537 26.79944751 -26.25506697 26.90022889 -28 27 C-25.01644368 25.01096246 -23.47741607 24.54387056 -20.03515625 23.9296875 C-19.07029297 23.75566406 -18.10542969 23.58164063 -17.11132812 23.40234375 C-16.10521484 23.22832031 -15.09910156 23.05429688 -14.0625 22.875 C-13.06025391 22.69324219 -12.05800781 22.51148438 -11.02539062 22.32421875 C-6.9221348 21.5960893 -3.18200289 21 1 21 C0.9278125 20.32195312 0.855625 19.64390625 0.78125 18.9453125 C0.14886291 12.60387527 -0.12438222 6.37113353 0 0 Z " fill="#68CD9A" transform="translate(71,143)"/>
<path d="M0 0 C1.32 1.65 2.64 3.3 4 5 C2 7 2 7 -0.48876953 7.23046875 C-11.6309764 7.08401405 -22.74705089 6.5632969 -33.875 6 C-35.83462 5.90333277 -37.79425536 5.8069764 -39.75390625 5.7109375 C-44.50278859 5.47753637 -49.25144416 5.23994853 -54 5 C-54 4.67 -54 4.34 -54 4 C-27.27 3.505 -27.27 3.505 0 3 C0 2.01 0 1.02 0 0 Z " fill="#45CD90" transform="translate(131,163)"/>
<path d="M0 0 C0.33 0 0.66 0 1 0 C1.00410889 0.6077124 1.00821777 1.2154248 1.01245117 1.84155273 C1.24632651 21.70598848 3.19659513 41.19659513 18 56 C17.67 56.99 17.34 57.98 17 59 C10.74035991 51.96187675 6.36210165 44.80692114 3 36 C2.72712158 35.28924316 2.45424316 34.57848633 2.1730957 33.84619141 C-0.30748158 26.66515019 -0.35139388 19.91411841 -0.1875 12.375 C-0.17396484 11.18003906 -0.16042969 9.98507813 -0.14648438 8.75390625 C-0.11146292 5.835452 -0.06234993 2.91797652 0 0 Z " fill="#DAEBE7" transform="translate(29,86)"/>
<path d="M0 0 C1.57394531 -0.05607422 1.57394531 -0.05607422 3.1796875 -0.11328125 C6.125 0.3125 6.125 0.3125 8.5078125 2.14453125 C10.125 4.3125 10.125 4.3125 10.125 7.3125 C8.805 6.9825 7.485 6.6525 6.125 6.3125 C6.455 5.9825 6.785 5.6525 7.125 5.3125 C-3.435 4.9825 -13.995 4.6525 -24.875 4.3125 C-24.875 3.9825 -24.875 3.6525 -24.875 3.3125 C-23.67101563 3.17972656 -22.46703125 3.04695312 -21.2265625 2.91015625 C-19.65101915 2.7319698 -18.07549953 2.5535735 -16.5 2.375 C-15.7059375 2.28798828 -14.911875 2.20097656 -14.09375 2.11132812 C-9.16792537 1.54778039 -4.95907144 0.11518626 0 0 Z " fill="#4ACBAA" transform="translate(65.875,166.6875)"/>
<path d="M0 0 C15.18 0 30.36 0 46 0 C45.67 0.66 45.34 1.32 45 2 C39.32692173 3.02303353 33.86856654 3.08108033 28.125 2.87890625 C27.31506592 2.85529526 26.50513184 2.83168427 25.6706543 2.80735779 C23.11355542 2.731503 20.55682132 2.64714858 18 2.5625 C16.2539234 2.50920076 14.50782963 2.45646108 12.76171875 2.40429688 C8.50758668 2.27599544 4.25375996 2.14007677 0 2 C0 1.34 0 0.68 0 0 Z " fill="#B0E553" transform="translate(83,89)"/>
<path d="M0 0 C1.65 0.33 3.3 0.66 5 1 C5 1.66 5 2.32 5 3 C5.78375 2.95875 6.5675 2.9175 7.375 2.875 C10 3 10 3 12 5 C12 5.99 12 6.98 12 8 C3.82384493 8.79810624 -1.812087 6.82626548 -9 3 C-5.90279155 2.12159004 -4.09354597 2.00564594 -1 3 C-0.67 2.01 -0.34 1.02 0 0 Z " fill="#3CBDAC" transform="translate(127,74)"/>
<path d="M0 0 C0.33 1.32 0.66 2.64 1 4 C1.99 4 2.98 4 4 4 C3.67 5.65 3.34 7.3 3 9 C2.34 9 1.68 9 1 9 C0.67 10.32 0.34 11.64 0 13 C-0.99 13 -1.98 13 -3 13 C-3.33 11.68 -3.66 10.36 -4 9 C-5.32 8.67 -6.64 8.34 -8 8 C-7.32253522 3.25774652 -4.9532836 0 0 0 Z " fill="#EFF1F0" transform="translate(72,46)"/>
<path d="M0 0 C3.92688929 5.89033393 2.19929318 14.25397586 1 21 C0.67 21 0.34 21 0 21 C0 14.73 0 8.46 0 2 C-1.65 2 -3.3 2 -5 2 C-6.13519747 5.74240925 -6.31480852 9.51137771 -6.53515625 13.390625 C-6.57813339 14.09523865 -6.62111053 14.79985229 -6.66539001 15.52581787 C-6.80128098 17.76701648 -6.93196126 20.00848391 -7.0625 22.25 C-7.15395281 23.77345819 -7.24574586 25.296896 -7.33789062 26.8203125 C-7.56253607 30.54664695 -7.78251071 34.27324025 -8 38 C-8.33 38 -8.66 38 -9 38 C-9.09133321 28.66371644 -9.1401664 19.32820011 -8.6875 10 C-8.62949219 8.72125 -8.57148437 7.4425 -8.51171875 6.125 C-8 3 -8 3 -6.6171875 1.0859375 C-4.29170096 -0.47562109 -2.73202748 -0.42031192 0 0 Z " fill="#BFDB9A" transform="translate(126,97)"/>
<path d="M0 0 C24.255 0.495 24.255 0.495 49 1 C49 1.33 49 1.66 49 2 C44.76850764 2.2891225 40.53674254 2.57375568 36.3046875 2.85449219 C34.86938622 2.95030755 33.43416183 3.04728291 31.99902344 3.14550781 C23.98963643 3.69287178 16.03370108 4.12577223 8 4 C8 3.67 8 3.34 8 3 C6.865625 2.87625 5.73125 2.7525 4.5625 2.625 C3.386875 2.41875 2.21125 2.2125 1 2 C0.67 1.34 0.34 0.68 0 0 Z " fill="#E9F0DA" transform="translate(64,91)"/>
<path d="M0 0 C0.33 0 0.66 0 1 0 C1.71295851 10.10873314 -4.97166901 17.88569536 -11.3125 25.25 C-13.65652012 27.85552337 -14.62866201 28.87622067 -18 30 C-16.30039821 26.07267156 -13.69843155 22.8906964 -11.0625 19.5625 C-7.09739265 14.54695664 -3.47305964 9.75764375 -1.3125 3.6875 C-0.6628125 1.8621875 -0.6628125 1.8621875 0 0 Z " fill="#D9ECEA" transform="translate(161,119)"/>
<path d="M0 0 C0.99 0.33 1.98 0.66 3 1 C3.33 5.95 3.66 10.9 4 16 C5.32 15.67 6.64 15.34 8 15 C7.28028381 18.75345656 5.66887798 21.86091969 3.9375 25.25 C3.38964844 26.32765625 2.84179688 27.4053125 2.27734375 28.515625 C1.85582031 29.33546875 1.43429688 30.1553125 1 31 C-0.02064348 27.93806956 0.01597547 26.78388388 0.4375 23.6875 C1.79479495 11.74546261 1.79479495 11.74546261 0 0 Z " fill="#57C7B7" transform="translate(164,102)"/>
<path d="M0 0 C10.55808656 0.77904328 10.55808656 0.77904328 15 3 C14.67 4.32 14.34 5.64 14 7 C8.06 7.33 2.12 7.66 -4 8 C-3.67 9.32 -3.34 10.64 -3 12 C-3.66 12 -4.32 12 -5 12 C-5 11.01 -5 10.02 -5 9 C-6.03125 8.855625 -7.0625 8.71125 -8.125 8.5625 C-11.42549813 8.08339543 -14.71268341 7.56124917 -18 7 C-18 6.67 -18 6.34 -18 6 C-7.77 6 2.46 6 13 6 C13 5.01 13 4.02 13 3 C12.14535156 2.95101562 11.29070312 2.90203125 10.41015625 2.8515625 C8.75306641 2.73941406 8.75306641 2.73941406 7.0625 2.625 C5.40927734 2.52058594 5.40927734 2.52058594 3.72265625 2.4140625 C2.82417969 2.27742187 1.92570312 2.14078125 1 2 C0.67 1.34 0.34 0.68 0 0 Z " fill="#F4F7F6" transform="translate(156,167)"/>
<path d="M0 0 C1.15957207 3.47871621 0.77456651 4.34219645 -0.4375 7.6875 C-0.72496094 8.49574219 -1.01242188 9.30398437 -1.30859375 10.13671875 C-1.53675781 10.75160156 -1.76492187 11.36648437 -2 12 C-2.66 12 -3.32 12 -4 12 C-5.52372601 22.99153812 -6.47872802 33.91611166 -7 45 C-9 43 -9 43 -9.23046875 40.82373047 C-8.99795809 26.17820119 -8.35058427 12.52587641 0 0 Z " fill="#CDECE2" transform="translate(47,58)"/>
<path d="M0 0 C2.31 0 4.62 0 7 0 C6.67 0.99 6.34 1.98 6 3 C5.34 3 4.68 3 4 3 C4 3.66 4 4.32 4 5 C3.02804688 5.53109375 2.05609375 6.0621875 1.0546875 6.609375 C-2.39051495 8.77500428 -2.39051495 8.77500428 -2.8046875 12.890625 C-2.85750038 14.34297908 -2.88013535 15.79669507 -2.875 17.25 C-2.895625 17.99507812 -2.91625 18.74015625 -2.9375 19.5078125 C-2.98442939 21.33805864 -2.99574223 23.16915725 -3 25 C-3.33 25 -3.66 25 -4 25 C-4 18.07 -4 11.14 -4 4 C-2.68 3.67 -1.36 3.34 0 3 C0 2.01 0 1.02 0 0 Z " fill="#A2D751" transform="translate(121,91)"/>
<path d="M0 0 C0.99 0.33 1.98 0.66 3 1 C2.01 2.485 2.01 2.485 1 4 C0.81566499 6.68240269 0.81566499 6.68240269 1.0234375 9.70703125 C1.07508057 10.84551514 1.12672363 11.98399902 1.17993164 13.15698242 C1.2443042 14.36330322 1.30867676 15.56962402 1.375 16.8125 C1.48759842 19.2629333 1.5982934 21.71345485 1.70703125 24.1640625 C1.76068848 25.34258789 1.8143457 26.52111328 1.86962891 27.73535156 C2.09950617 33.49175377 2.09582369 39.23993152 2 45 C1.67 45 1.34 45 1 45 C-1.66604615 11.36243897 -1.66604615 11.36243897 -1 1 C-0.67 0.67 -0.34 0.34 0 0 Z " fill="#B1D685" transform="translate(69,98)"/>
<path d="M0 0 C0.66 0 1.32 0 2 0 C2.08302368 1.27846802 2.08302368 1.27846802 2.16772461 2.58276367 C2.37567976 5.76051742 2.58662287 8.93805505 2.79956055 12.11547852 C2.890919 13.4877957 2.9811041 14.86019154 3.07006836 16.23266602 C3.19853282 18.21130579 3.33163973 20.1896424 3.46484375 22.16796875 C3.543396 23.35672607 3.62194824 24.5454834 3.70288086 25.77026367 C3.96176609 28.58439077 4.38022706 31.24621037 5 34 C3 33 3 33 1.9140625 30.5859375 C0.72430942 25.91844464 0.53929916 21.42390457 0.375 16.625 C0.33632813 15.69816406 0.29765625 14.77132812 0.2578125 13.81640625 C0.16412409 11.5444623 0.07840652 9.27251404 0 7 C-0.66 8.65 -1.32 10.3 -2 12 C-3.15957207 8.52128379 -2.77456651 7.65780355 -1.5625 4.3125 C-1.13130859 3.10013672 -1.13130859 3.10013672 -0.69140625 1.86328125 C-0.46324219 1.24839844 -0.23507813 0.63351563 0 0 Z " fill="#8DDBC1" transform="translate(34,69)"/>
<path d="M0 0 C1.9375 0.8125 1.9375 0.8125 3.9375 2.8125 C3.9375 4.1325 3.9375 5.4525 3.9375 6.8125 C3.2775 6.8125 2.6175 6.8125 1.9375 6.8125 C1.6075 7.8025 1.2775 8.7925 0.9375 9.8125 C-2.0625 9.8125 -2.0625 9.8125 -3.75 8.5625 C-5.0625 6.8125 -5.0625 6.8125 -5.0625 2.8125 C-3.46878888 0.50161888 -2.85554204 -0.25959473 0 0 Z " fill="#E8EAE8" transform="translate(81.0625,74.1875)"/>
<path d="M0 0 C2.76276177 0.52268466 5.3260876 1.10869587 8 2 C7.8125 3.8125 7.8125 3.8125 7 6 C5.34467377 7.01866229 3.67739862 8.01810813 2 9 C0.67206394 11.06700655 0.67206394 11.06700655 0 13 C-0.99 13 -1.98 13 -3 13 C-3 11.35 -3 9.7 -3 8 C-2.34 8 -1.68 8 -1 8 C0.6446674 5.53673288 0.6446674 5.53673288 2 3 C1.34 3 0.68 3 0 3 C0 2.01 0 1.02 0 0 Z " fill="#EDEFEE" transform="translate(65,71)"/>
<path d="M0 0 C0.495 1.485 0.495 1.485 1 3 C-11.375 3.495 -11.375 3.495 -24 4 C-24 4.33 -24 4.66 -24 5 C-28.8333472 5.08333357 -33.23692563 4.95261487 -38 4 C-38 3.34 -38 2.68 -38 2 C-25.46 2 -12.92 2 0 2 C0 1.34 0 0.68 0 0 Z " fill="#D6E3DF" transform="translate(168,170)"/>
<path d="M0 0 C6.71256524 -0.26877138 12.15754788 0.54952075 18.5625 2.5 C19.38041016 2.73847656 20.19832031 2.97695312 21.04101562 3.22265625 C23.03051089 3.80438001 25.01574189 4.40065559 27 5 C27 5.33 27 5.66 27 6 C4.96954315 4.96954315 4.96954315 4.96954315 0 0 Z " fill="#9EE2D0" transform="translate(88,67)"/>
<path d="M0 0 C0.66 0 1.32 0 2 0 C1.34 7.26 0.68 14.52 0 22 C-0.66 21.67 -1.32 21.34 -2 21 C-2.4140625 18.93359375 -2.4140625 18.93359375 -2.625 16.4375 C-2.69976562 15.61121094 -2.77453125 14.78492187 -2.8515625 13.93359375 C-2.92503906 12.97646484 -2.92503906 12.97646484 -3 12 C-3.99 12.495 -3.99 12.495 -5 13 C-4.54803755 11.39402675 -4.08817673 9.79027492 -3.625 8.1875 C-3.36976562 7.29417969 -3.11453125 6.40085937 -2.8515625 5.48046875 C-2 3 -2 3 0 0 Z " fill="#5FDAA7" transform="translate(50,55)"/>
<path d="M0 0 C1.98 0 3.96 0 6 0 C5.84152588 0.83805176 5.68305176 1.67610352 5.51977539 2.53955078 C4.97345027 6.17675708 4.78992294 9.69123534 4.68359375 13.3671875 C4.66281265 14.04677521 4.64203156 14.72636292 4.62062073 15.42654419 C4.5557637 17.57593666 4.49654059 19.7254407 4.4375 21.875 C4.39425388 23.3411569 4.35063775 24.80730294 4.30664062 26.2734375 C4.20014896 29.84884275 4.09870591 33.42437037 4 37 C3.67 37 3.34 37 3 37 C2.98018066 36.04109863 2.96036133 35.08219727 2.93994141 34.09423828 C2.86395855 30.54188447 2.7752307 26.98994424 2.68261719 23.43798828 C2.64429699 21.89965979 2.60944944 20.36124075 2.578125 18.82275391 C2.53253941 16.61327724 2.4745366 14.40442552 2.4140625 12.1953125 C2.40251129 11.50567413 2.39096008 10.81603577 2.37905884 10.10549927 C2.35048978 6.1079846 2.35048978 6.1079846 0 3 C0 2.01 0 1.02 0 0 Z " fill="#99CD5B" transform="translate(104,94)"/>
<path d="M0 0 C0 0.33 0 0.66 0 1 C-1.79244141 1.14695312 -1.79244141 1.14695312 -3.62109375 1.296875 C-14.81804133 2.26057849 -14.81804133 2.26057849 -25.23046875 6.24609375 C-27.99164178 7.42248756 -30.21320335 6.85747589 -33 6 C-24.36856132 -1.59566604 -10.69828832 -0.13523117 0 0 Z " fill="#9EDABF" transform="translate(105,23)"/>
<path d="M0 0 C0.66 0 1.32 0 2 0 C2 0.99 2 1.98 2 3 C11.57 3 21.14 3 31 3 C27.39338934 4.80330533 24.91606575 5.46599103 21 6 C21 6.99 21 7.98 21 9 C20.34 9 19.68 9 19 9 C19.33 7.68 19.66 6.36 20 5 C13.73 4.67 7.46 4.34 1 4 C0.67 2.68 0.34 1.36 0 0 Z " fill="#FCFCFC" transform="translate(34,170)"/>
<path d="M0 0 C1.734375 0.08203125 1.734375 0.08203125 4 1 C5.61406117 3.22375217 6.93534313 5.29920669 8.25 7.6875 C8.61351562 8.30044922 8.97703125 8.91339844 9.3515625 9.54492188 C11.59788472 13.52665467 12.41967598 16.44651561 12 21 C8.78913072 17.78913072 7.38247657 13.43691868 5.56640625 9.32226562 C4.06462775 5.48304874 4.06462775 5.48304874 1 3 C0.67 3.99 0.34 4.98 0 6 C0 4.02 0 2.04 0 0 Z " fill="#E0F0E9" transform="translate(160,50)"/>
<path d="M0 0 C0.33 0 0.66 0 1 0 C0.98839844 0.62648438 0.97679687 1.25296875 0.96484375 1.8984375 C0.95582031 2.71570313 0.94679687 3.53296875 0.9375 4.375 C0.92589844 5.18710938 0.91429687 5.99921875 0.90234375 6.8359375 C0.85533666 9.04937142 0.85533666 9.04937142 2 11 C0.8125 14.5625 0.8125 14.5625 -1 18 C-3.1875 18.9375 -3.1875 18.9375 -5 19 C-5.33 18.01 -5.66 17.02 -6 16 C-5.53980469 15.64292969 -5.07960937 15.28585938 -4.60546875 14.91796875 C-2.36499924 12.24139812 -2.01856724 9.70834719 -1.3125 6.3125 C-1.06113281 5.13300781 -0.80976563 3.95351562 -0.55078125 2.73828125 C-0.36902344 1.83464844 -0.18726563 0.93101563 0 0 Z " fill="#B9E1DD" transform="translate(164,123)"/>
<path d="M0 0 C0.33 0 0.66 0 1 0 C0.23552389 11.0245502 -0.87119813 22.00788078 -2 33 C-2.33 33 -2.66 33 -3 33 C-3.35130563 7.31565498 -3.35130563 7.31565498 0 0 Z " fill="#F4F6F3" transform="translate(141,87)"/>
<path d="M0 0 C2.64 0 5.28 0 8 0 C8.33 0.99 8.66 1.98 9 3 C16.20307939 5.16092382 23.52070122 5.56072125 31 6 C31 6.33 31 6.66 31 7 C21.57025569 7.51591306 8.73548963 7.95499001 1.10546875 1.36328125 C0.74066406 0.91339844 0.37585938 0.46351562 0 0 Z " fill="#83CDC0" transform="translate(87,44)"/>
<path d="M0 0 C4.35535069 1.16142685 6.64619703 2.07699505 9 6 C1.84404654 5.29843593 -5.01855181 3.69214979 -12 2 C-12 1.67 -12 1.34 -12 1 C-7.83861737 0.91840426 -4.0527516 1.01751476 0 2 C0 1.34 0 0.68 0 0 Z " fill="#7AD2B5" transform="translate(134,32)"/>
<path d="M0 0 C2.375 -0.125 2.375 -0.125 5 0 C7 2 7 2 7 5 C5.39620659 5.05416188 3.79188594 5.09286638 2.1875 5.125 C1.29417969 5.14820312 0.40085938 5.17140625 -0.51953125 5.1953125 C-3 5 -3 5 -6 3 C-4.35 3 -2.7 3 -1 3 C-0.67 2.01 -0.34 1.02 0 0 Z " fill="#55BEB7" transform="translate(132,77)"/>
<path d="M0 0 C0.66 0 1.32 0 2 0 C2.66 1.98 3.32 3.96 4 6 C2 6 2 6 0.375 4.5 C-0.07875 4.005 -0.5325 3.51 -1 3 C-0.67 2.01 -0.34 1.02 0 0 Z M-1 6 C-0.01 6 0.98 6 2 6 C2 6.99 2 7.98 2 9 C2.66 9 3.32 9 4 9 C3.34 10.32 2.68 11.64 2 13 C0.68 12.67 -0.64 12.34 -2 12 C-1.67 10.02 -1.34 8.04 -1 6 Z " fill="#F6F7F7" transform="translate(63,65)"/>
<path d="M0 0 C0.33 0 0.66 0 1 0 C1.07347656 1.19496094 1.07347656 1.19496094 1.1484375 2.4140625 C1.70029395 10.38157314 1.70029395 10.38157314 4 18 C0.06326356 16.68775452 -2.22719294 15.08089673 -5 12 C-4.67 11.34 -4.34 10.68 -4 10 C-2.68 10.66 -1.36 11.32 0 12 C0 8.04 0 4.08 0 0 Z " fill="#5BC3BB" transform="translate(52,133)"/>
<path d="M0 0 C2.25060343 3.37590515 2.25658785 4.56122839 2.265625 8.515625 C2.26949219 10.14564453 2.26949219 10.14564453 2.2734375 11.80859375 C2.26570313 12.94425781 2.25796875 14.07992187 2.25 15.25 C2.25773437 16.37019531 2.26546875 17.49039063 2.2734375 18.64453125 C2.259659 24.47972573 2.00266073 29.50063006 0 35 C-0.33 35 -0.66 35 -1 35 C-1 32.03 -1 29.06 -1 26 C-0.34 26 0.32 26 1 26 C0.67 17.42 0.34 8.84 0 0 Z " fill="#93D5C7" transform="translate(55,93)"/>
<path d="M0 0 C2.22825644 2.22825644 2.69239369 3.65761628 3.625 6.625 C3.88539062 7.44226563 4.14578125 8.25953125 4.4140625 9.1015625 C4.60742188 9.72804687 4.80078125 10.35453125 5 11 C2 12 2 12 -0.4375 10.8125 C-2.91487622 9.06020951 -4.9360407 7.21684517 -7 5 C-6.67 4.34 -6.34 3.68 -6 3 C-4.50260417 4.26953125 -3.00520833 5.5390625 -1.5078125 6.80859375 C0.00594079 8.0878152 0.00594079 8.0878152 2 9 C1.67 8.2575 1.34 7.515 1 6.75 C0 4 0 4 0 0 Z " fill="#EBF1F1" transform="translate(54,142)"/>
<path d="M0 0 C0.33 1.32 0.66 2.64 1 4 C2.051875 3.95875 3.10375 3.9175 4.1875 3.875 C10.1421502 3.88569057 16.24096787 4.47459064 22 6 C22.99 7.485 22.99 7.485 24 9 C21.27246094 8.54541016 18.54492188 8.09082031 15.81738281 7.63623047 C15.04491211 7.50748535 14.27244141 7.37874023 13.4765625 7.24609375 C10.2265625 6.70442708 6.9765625 6.16276042 3.7265625 5.62109375 C1.88191406 5.31365234 1.88191406 5.31365234 0 5 C0 3.35 0 1.7 0 0 Z " fill="#DFECE8" transform="translate(133,160)"/>
<path d="M0 0 C4.29 0.66 8.58 1.32 13 2 C13 2.66 13 3.32 13 4 C14.98 4.66 16.96 5.32 19 6 C15.69752556 7.11327758 13.86974219 6.88862386 10.625 5.6875 C9.84511719 5.40648438 9.06523438 5.12546875 8.26171875 4.8359375 C7.51535156 4.56007813 6.76898438 4.28421875 6 4 C4.824375 3.608125 3.64875 3.21625 2.4375 2.8125 C1.633125 2.544375 0.82875 2.27625 0 2 C0 1.34 0 0.68 0 0 Z " fill="#51C4B2" transform="translate(106,73)"/>
<path d="M0 0 C1.02577148 0.00676758 1.02577148 0.00676758 2.07226562 0.01367188 C3.73571604 0.0253044 5.3991205 0.04323306 7.0625 0.0625 C6.7325 0.7225 6.4025 1.3825 6.0625 2.0625 C3.4225 2.0625 0.7825 2.0625 -1.9375 2.0625 C-1.9375 2.7225 -1.9375 3.3825 -1.9375 4.0625 C-2.9275 4.0625 -3.9175 4.0625 -4.9375 4.0625 C-4.9375 3.0725 -4.9375 2.0825 -4.9375 1.0625 C-5.9275 1.5575 -5.9275 1.5575 -6.9375 2.0625 C-9.6098621 2.19665472 -12.26000488 2.10568541 -14.9375 2.0625 C-14.9375 1.7325 -14.9375 1.4025 -14.9375 1.0625 C-9.89895894 0.23038724 -5.1249338 -0.0453534 0 0 Z " fill="#46CE9C" transform="translate(86.9375,63.9375)"/>
<path d="M0 0 C0 0.33 0 0.66 0 1 C-8.31097656 4.10928299 -16.21095009 4.66015674 -25 5 C-21.52179367 2.68119578 -18.8416981 2.18192851 -14.75 1.375 C-13.46609375 1.11460937 -12.1821875 0.85421875 -10.859375 0.5859375 C-7.16832367 0.02555521 -3.72587543 -0.1061778 0 0 Z " fill="#80D6B9" transform="translate(68,165)"/>
<path d="M0 0 C0.33 0 0.66 0 1 0 C1.25515919 7.52719602 0.28297723 14.58851545 -1 22 C-1.33 22 -1.66 22 -2 22 C-2.05434116 19.4580411 -2.0938339 16.91726318 -2.125 14.375 C-2.14175781 13.66214844 -2.15851562 12.94929687 -2.17578125 12.21484375 C-2.21684602 7.7387836 -1.69086567 4.22050722 0 0 Z " fill="#D3E9E6" transform="translate(55,123)"/>
<path d="M0 0 C1.89575251 -0.02721176 3.79161979 -0.04649136 5.6875 -0.0625 C6.74324219 -0.07410156 7.79898438 -0.08570313 8.88671875 -0.09765625 C11.72410262 -0.00865425 14.2438919 0.35060162 17 1 C15.68 1.33 14.36 1.66 13 2 C13 2.66 13 3.32 13 4 C8.51474352 3.343621 4.33085971 2.29925791 0 1 C0 0.67 0 0.34 0 0 Z " fill="#C8EBDF" transform="translate(110,33)"/>
<path d="M0 0 C0 3.90689726 -1.23150967 4.76963412 -3.8125 7.625 C-4.52019531 8.42164063 -5.22789062 9.21828125 -5.95703125 10.0390625 C-8 12 -8 12 -11 13 C-8.72126867 7.61390776 -4.84467788 3.22978525 0 0 Z " fill="#E1EDED" transform="translate(154,136)"/>
<path d="M0 0 C4.62 0 9.24 0 14 0 C12.68 0.33 11.36 0.66 10 1 C10 1.66 10 2.32 10 3 C8.02 3 6.04 3 4 3 C4.33 4.98 4.66 6.96 5 9 C4.34 9 3.68 9 3 9 C2 6 1 3 0 0 Z " fill="#A6DA52" transform="translate(84,95)"/>
<path d="M0 0 C1.37466431 0.07069702 1.37466431 0.07069702 2.77709961 0.14282227 C4.26113281 0.21533203 4.26113281 0.21533203 5.77514648 0.28930664 C7.33652344 0.37341797 7.33652344 0.37341797 8.92944336 0.45922852 C10.49662109 0.53753906 10.49662109 0.53753906 12.09545898 0.61743164 C14.68622572 0.74756148 17.27665002 0.8825401 19.86694336 1.02172852 C19.86694336 1.35172852 19.86694336 1.68172852 19.86694336 2.02172852 C19.24126465 2.03631104 18.61558594 2.05089355 17.97094727 2.06591797 C15.14397934 2.14025656 12.31821128 2.23696085 9.49194336 2.33422852 C8.50709961 2.35678711 7.52225586 2.3793457 6.50756836 2.40258789 C5.56655273 2.43803711 4.62553711 2.47348633 3.65600586 2.51000977 C2.78669434 2.53619385 1.91738281 2.56237793 1.02172852 2.58935547 C-1.51905691 2.8351807 -1.51905691 2.8351807 -3.13305664 6.02172852 C-3.17577764 4.35560946 -3.17369496 2.68789967 -3.13305664 1.02172852 C-2.13305664 0.02172852 -2.13305664 0.02172852 0 0 Z " fill="#E9EBE6" transform="translate(66.133056640625,84.978271484375)"/>
<path d="M0 0 C6.27 0 12.54 0 19 0 C19 0.33 19 0.66 19 1 C12.565 1.495 12.565 1.495 6 2 C6.33 2.66 6.66 3.32 7 4 C4.69 3.67 2.38 3.34 0 3 C0 2.01 0 1.02 0 0 Z " fill="#54C9AD" transform="translate(123,170)"/>
<path d="M0 0 C3.63 0 7.26 0 11 0 C11.33 0.99 11.66 1.98 12 3 C8.37 3 4.74 3 1 3 C0.67 2.01 0.34 1.02 0 0 Z " fill="#3FD2A3" transform="translate(61,167)"/>
<path d="M0 0 C0.33 0 0.66 0 1 0 C0.67 2.31 0.34 4.62 0 7 C0.99 7.33 1.98 7.66 3 8 C1.71937515 9.7074998 0.38232443 11.37373596 -1 13 C-1.66 13 -2.32 13 -3 13 C-2.52060632 8.28596212 -2.03165952 4.33420699 0 0 Z " fill="#5FC0BB" transform="translate(148,131)"/>
<path d="M0 0 C0.66 1.32 1.32 2.64 2 4 C0.02 6.97 0.02 6.97 -2 10 C-2.99 9.67 -3.98 9.34 -5 9 C-4.67 7.68 -4.34 6.36 -4 5 C-3.34 5 -2.68 5 -2 5 C-1.34 3.35 -0.68 1.7 0 0 Z " fill="#BCDDD9" transform="translate(144,141)"/>
<path d="M0 0 C1.76462683 3.08809695 2 4.23312136 2 8 C2.66 8.33 3.32 8.66 4 9 C3.79375 9.61875 3.5875 10.2375 3.375 10.875 C3.25125 11.57625 3.1275 12.2775 3 13 C3.66 13.66 4.32 14.32 5 15 C3.68 15 2.36 15 1 15 C-0.09506492 11.71480525 -0.09960608 9.26336585 -0.0625 5.8125 C-0.05347656 4.72582031 -0.04445313 3.63914063 -0.03515625 2.51953125 C-0.02355469 1.68808594 -0.01195313 0.85664063 0 0 Z " fill="#529C33" transform="translate(73,150)"/>
<path d="M0 0 C2.86724686 0.57344937 3.8614515 0.8614515 6 3 C6 4.32 6 5.64 6 7 C5.34 7 4.68 7 4 7 C3.67 7.99 3.34 8.98 3 10 C2.01 10 1.02 10 0 10 C0 9.34 0 8.68 0 8 C0.99 8 1.98 8 3 8 C2.7215625 7.0409375 2.7215625 7.0409375 2.4375 6.0625 C2.293125 5.381875 2.14875 4.70125 2 4 C2.33 3.67 2.66 3.34 3 3 C2.01 2.67 1.02 2.34 0 2 C0 1.34 0 0.68 0 0 Z " fill="#F3F4F3" transform="translate(79,74)"/>
<path d="M0 0 C3.465 1.485 3.465 1.485 7 3 C7 3.66 7 4.32 7 5 C3.7 4.67 0.4 4.34 -3 4 C-2.01 2.68 -1.02 1.36 0 0 Z " fill="#43CCA6" transform="translate(115,67)"/>
<path d="M0 0 C1.98 0 3.96 0 6 0 C5.835 0.928125 5.67 1.85625 5.5 2.8125 C4.92251612 5.95621353 4.92251612 5.95621353 5 9 C4.34 9 3.68 9 3 9 C1.76078698 6.02588876 0.69941596 3.14737182 0 0 Z " fill="#A7DD50" transform="translate(104,94)"/>
<path d="M0 0 C0.33 0 0.66 0 1 0 C1 4.29 1 8.58 1 13 C0.67 13 0.34 13 0 13 C-0.33 11.35 -0.66 9.7 -1 8 C-1.66 8.66 -2.32 9.32 -3 10 C-2.49287967 6.28111761 -1.88391785 3.26545761 0 0 Z " fill="#58D5A8" transform="translate(34,75)"/>
<path d="M0 0 C0.66 0.33 1.32 0.66 2 1 C1.67 1.66 1.34 2.32 1 3 C2.65 3 4.3 3 6 3 C6 3.66 6 4.32 6 5 C2.7 5 -0.6 5 -4 5 C-4 4.34 -4 3.68 -4 3 C-2 1.375 -2 1.375 0 0 Z " fill="#79D7B8" transform="translate(63,32)"/>
<path d="M0 0 C0.33 0 0.66 0 1 0 C1 3.63 1 7.26 1 11 C-0.65 11.33 -2.3 11.66 -4 12 C-5 11 -5 11 -5.0625 7.9375 C-5.041875 6.968125 -5.02125 5.99875 -5 5 C-4.67 5 -4.34 5 -4 5 C-4 6.65 -4 8.3 -4 10 C-3.01 9.67 -2.02 9.34 -1 9 C-0.67 6.03 -0.34 3.06 0 0 Z " fill="#DFE5DC" transform="translate(105,144)"/>
<path d="M0 0 C0.99 0.66 1.98 1.32 3 2 C2.67 3.32 2.34 4.64 2 6 C-2.40114397 5.49701212 -4.71195019 3.91227269 -8 1 C-5.03 1.495 -5.03 1.495 -2 2 C-2 2.66 -2 3.32 -2 4 C-1.01 4 -0.02 4 1 4 C0.67 2.68 0.34 1.36 0 0 Z " fill="#EBF1F1" transform="translate(152,54)"/>
<path d="M0 0 C1.8125 0.1875 1.8125 0.1875 4 1 C7 5.17857143 7 5.17857143 7 8 C6.01 8 5.02 8 4 8 C4 7.34 4 6.68 4 6 C3.34 5.67 2.68 5.34 2 5 C1.27840576 3.35636866 0.60648579 1.68949614 0 0 Z " fill="#BDDCD9" transform="translate(146,50)"/>
<path d="M0 0 C2.97 0 5.94 0 9 0 C5.39338934 1.80330533 2.91606575 2.46599103 -1 3 C-1 3.99 -1 4.98 -1 6 C-1.66 6 -2.32 6 -3 6 C-2.67 4.68 -2.34 3.36 -2 2 C-1.34 2 -0.68 2 0 2 C0 1.34 0 0.68 0 0 Z " fill="#F3F6F6" transform="translate(56,173)"/>
<path d="M0 0 C-2.72973106 1.81982071 -4.86781344 3.08326247 -8 4 C-10.3125 3.125 -10.3125 3.125 -12 2 C-8.09971775 -0.60018816 -4.52565431 -0.15085514 0 0 Z " fill="#77D7AE" transform="translate(84,26)"/>
<path d="M0 0 C5.19209404 -0.21192221 9.126739 0.4087311 14 2 C14 2.33 14 2.66 14 3 C9.1666528 3.08333357 4.76307437 2.95261487 0 2 C0 1.34 0 0.68 0 0 Z " fill="#B8E4DE" transform="translate(130,172)"/>
<path d="M0 0 C0.33 0 0.66 0 1 0 C0.67 4.29 0.34 8.58 0 13 C-0.66 13 -1.32 13 -2 13 C-2.16682272 8.07872966 -2.24828052 4.49656104 0 0 Z " fill="#EBF0E5" transform="translate(141,87)"/>
<path d="M0 0 C3.9492568 0.55105909 7.34920174 1.38935371 11 3 C11 3.33 11 3.66 11 4 C9.741875 4.04125 8.48375 4.0825 7.1875 4.125 C6.47980469 4.14820312 5.77210937 4.17140625 5.04296875 4.1953125 C3 4 3 4 0 2 C0 1.34 0 0.68 0 0 Z " fill="#86D7C7" transform="translate(112,71)"/>
<path d="M0 0 C0.8125 1.6875 0.8125 1.6875 1 4 C-1.1613627 6.51185394 -3.01962439 8.50981219 -6 10 C-4.34832443 6.4213696 -2.21713508 3.25179812 0 0 Z " fill="#CDE5E3" transform="translate(157,129)"/>
<path d="M0 0 C1.875 0.3125 1.875 0.3125 4 1 C6 4 6 4 5.625 6.1875 C5.41875 6.785625 5.2125 7.38375 5 8 C4.71125 7.360625 4.4225 6.72125 4.125 6.0625 C3.17176549 3.84793921 3.17176549 3.84793921 1 3 C0.67 3.99 0.34 4.98 0 6 C0 4.02 0 2.04 0 0 Z " fill="#EFF4F2" transform="translate(160,50)"/>
<path d="M0 0 C3.81684226 1.55500981 6.19195732 4.03595495 9 7 C6.75 6.875 6.75 6.875 4 6 C1.6875 2.9375 1.6875 2.9375 0 0 Z " fill="#DFEDEB" transform="translate(139,43)"/>
<path d="M0 0 C1.98 1.65 3.96 3.3 6 5 C6.66 4.34 7.32 3.68 8 3 C8.33 4.65 8.66 6.3 9 8 C5.08158173 6.69386058 2.67359191 5.16870152 0 2 C0 1.34 0 0.68 0 0 Z " fill="#9FD2CF" transform="translate(47,143)"/>
<path d="M0 0 C3.96 0 7.92 0 12 0 C12 0.33 12 0.66 12 1 C9.69 1.33 7.38 1.66 5 2 C5 2.33 5 2.66 5 3 C3.35 3 1.7 3 0 3 C0 2.01 0 1.02 0 0 Z " fill="#6AD7AF" transform="translate(107,32)"/>
<path d="M0 0 C0.33 0 0.66 0 1 0 C1 3.63 1 7.26 1 11 C0.67 9.68 0.34 8.36 0 7 C-0.66 7 -1.32 7 -2 7 C-2 5.68 -2 4.36 -2 3 C-1.34 3 -0.68 3 0 3 C0 2.01 0 1.02 0 0 Z " fill="#DFEDEB" transform="translate(164,112)"/>
<path d="M0 0 C0.99 0.33 1.98 0.66 3 1 C3.33 2.65 3.66 4.3 4 6 C3.34 5.67 2.68 5.34 2 5 C1.67 6.65 1.34 8.3 1 10 C0.67 10 0.34 10 0 10 C0 6.7 0 3.4 0 0 Z " fill="#8AD7B6" transform="translate(162,54)"/>
<path d="M0 0 C0.66 0 1.32 0 2 0 C1.67 2.31 1.34 4.62 1 7 C-0.32 7.33 -1.64 7.66 -3 8 C-1.125 2.25 -1.125 2.25 0 0 Z " fill="#8BDCB7" transform="translate(50,55)"/>
<path d="M0 0 C3.875 1.75 3.875 1.75 5 4 C3.741875 3.87625 2.48375 3.7525 1.1875 3.625 C0.12595703 3.52058594 0.12595703 3.52058594 -0.95703125 3.4140625 C-3 3 -3 3 -6 1 C-4.02 1 -2.04 1 0 1 C0 0.67 0 0.34 0 0 Z " fill="#97D4C3" transform="translate(138,34)"/>
<path d="M0 0 C1.4540625 0.0309375 1.4540625 0.0309375 2.9375 0.0625 C2.6075 0.7225 2.2775 1.3825 1.9375 2.0625 C0.9784375 2.2790625 0.9784375 2.2790625 0 2.5 C-2.44460855 2.92415035 -2.44460855 2.92415035 -4.0625 6.0625 C-4.105221 4.39638095 -4.10313832 2.72867115 -4.0625 1.0625 C-3.0625 0.0625 -3.0625 0.0625 0 0 Z " fill="#F2F4F0" transform="translate(67.0625,84.9375)"/>
<path d="M0 0 C2.475 0.495 2.475 0.495 5 1 C5 2.32 5 3.64 5 5 C4.34 5 3.68 5 3 5 C3 4.34 3 3.68 3 3 C2.01 3 1.02 3 0 3 C0 2.01 0 1.02 0 0 Z " fill="#E6E8E7" transform="translate(65,71)"/>
</svg>
